<svg xmlns="http://www.w3.org/2000/svg" width="1000" height="640" viewBox="0 0 1000 640" role="img" aria-label="two_price_quantity_pairs_before_elasticity_calculation">
    
    <rect width="1000" height="640" rx="28" fill="#fbf8ef"/>
    <rect x="32" y="32" width="936" height="576" rx="24" fill="#ffffff" stroke="#d9d0be" stroke-width="1.5"/>
    <text x="64" y="74" text-anchor="start" font-family="Inter, Arial, sans-serif" font-size="18" font-weight="800" letter-spacing="2" font-style="" fill="#17A2B8">COMPANION VISUAL</text>
    <text x="64" y="114" text-anchor="start" font-family="Fraunces, Georgia, serif" font-size="34" font-weight="700" letter-spacing="0" font-style="italic" fill="#1b1a17">Grafiekfase</text>
    <text x="64" y="146" text-anchor="start" font-family="Inter, Arial, sans-serif" font-size="18" font-weight="500" letter-spacing="0" font-style="" fill="#4a463d">two_price_quantity_pairs_before_elasticity_calculation</text>
  
    <line x1="317.5" y1="154" x2="317.5" y2="516" stroke="#e9dfcc" stroke-width="1"/><line x1="124" y1="436.5" x2="898" y2="436.5" stroke="#e9dfcc" stroke-width="1"/><line x1="511" y1="154" x2="511" y2="516" stroke="#e9dfcc" stroke-width="1"/><line x1="124" y1="357" x2="898" y2="357" stroke="#e9dfcc" stroke-width="1"/><line x1="704.5" y1="154" x2="704.5" y2="516" stroke="#e9dfcc" stroke-width="1"/><line x1="124" y1="277.5" x2="898" y2="277.5" stroke="#e9dfcc" stroke-width="1"/><line x1="898" y1="154" x2="898" y2="516" stroke="#e9dfcc" stroke-width="1"/><line x1="124" y1="198" x2="898" y2="198" stroke="#e9dfcc" stroke-width="1"/>
    <line x1="124" y1="516" x2="898" y2="516" stroke="#1b1a17" stroke-width="3"/>
    <line x1="124" y1="516" x2="124" y2="154" stroke="#1b1a17" stroke-width="3"/>
    <text x="898" y="550" text-anchor="end" font-family="Inter, Arial, sans-serif" font-size="20" font-weight="800" letter-spacing="0" font-style="" fill="#1b1a17">Q</text>
    <text x="96" y="172" text-anchor="middle" font-family="Inter, Arial, sans-serif" font-size="20" font-weight="800" letter-spacing="0" font-style="" fill="#1b1a17">P</text>
    <text x="94" y="196" text-anchor="middle" font-family="Inter, Arial, sans-serif" font-size="15" font-weight="600" letter-spacing="0" font-style="" fill="#4a463d">euro</text>
    
        <path d="M 142 267.96 C 394.9 229.95999999999998, 611.62 500.76, 880 458.76" fill="none" stroke="#17A2B8" stroke-width="4"/>
        <text x="808" y="448.76" text-anchor="start" font-family="Inter, Arial, sans-serif" font-size="17" font-weight="800" letter-spacing="0" font-style="" fill="#17A2B8">vraag</text>
      
    
      <line x1="371.68" y1="401.52" x2="371.68" y2="516" stroke="#82796d" stroke-width="1.5" stroke-dasharray="5 5"/>
      <line x1="124" y1="401.52" x2="371.68" y2="401.52" stroke="#82796d" stroke-width="1.5" stroke-dasharray="5 5"/>
      <circle cx="371.68" cy="401.52" r="9" fill="#d08732" stroke="#ffffff" stroke-width="3"/>
      <text x="383.68" y="391.52" text-anchor="start" font-family="Inter, Arial, sans-serif" font-size="16" font-weight="800" letter-spacing="0" font-style="" fill="#1b1a17">P oud, Q oud</text>
    
      <line x1="634.84" y1="318.84000000000003" x2="634.84" y2="516" stroke="#82796d" stroke-width="1.5" stroke-dasharray="5 5"/>
      <line x1="124" y1="318.84000000000003" x2="634.84" y2="318.84000000000003" stroke="#82796d" stroke-width="1.5" stroke-dasharray="5 5"/>
      <circle cx="634.84" cy="318.84000000000003" r="9" fill="#d08732" stroke="#ffffff" stroke-width="3"/>
      <text x="646.84" y="308.84000000000003" text-anchor="start" font-family="Inter, Arial, sans-serif" font-size="16" font-weight="800" letter-spacing="0" font-style="" fill="#1b1a17">P nieuw, Q nieuw</text>
    
    
    <rect x="201.4" y="166" width="619.2" height="72" rx="10" fill="#efe8d7" stroke="#d9d0be" stroke-width="1" opacity="0.96"/>
    <text x="219.4" y="194" text-anchor="start" font-family="Inter, Arial, sans-serif" font-size="16" font-weight="600" letter-spacing="0" font-style="" fill="#1b1a17">Lees eerst twee P,Q-paren af; pas daarna bereken je elasticiteit.</text>
  
  </svg>