<svg xmlns="http://www.w3.org/2000/svg" width="960" height="540" viewBox="0 0 960 540" role="img" aria-label="selected_source_values_for_calculation">
    
    <rect width="960" height="540" rx="28" fill="#0f1419"/>
    <rect x="32" y="32" width="896" height="476" rx="24" fill="#1c232c" stroke="#364253" stroke-width="1.5"/>
    <text x="64" y="74" text-anchor="start" font-family="Inter, Arial, sans-serif" font-size="18" font-weight="800" letter-spacing="2" font-style="" fill="#d08732">COMPANION VISUAL</text>
    <text x="64" y="114" text-anchor="start" font-family="Fraunces, Georgia, serif" font-size="34" font-weight="700" letter-spacing="0" font-style="italic" fill="#f2efe8">Tabelspoor</text>
    <text x="64" y="146" text-anchor="start" font-family="Inter, Arial, sans-serif" font-size="18" font-weight="500" letter-spacing="0" font-style="" fill="#c9c2b8">selected_source_values_for_calculation</text>
  
    <rect x="84" y="176" width="792" height="180" rx="8" fill="#1c232c" stroke="#364253" stroke-width="1.5"/>
    <line x1="84" y1="176" x2="876" y2="176" stroke="#364253" stroke-width="1.5"/><line x1="84" y1="236" x2="876" y2="236" stroke="#364253" stroke-width="1.5"/><line x1="84" y1="296" x2="876" y2="296" stroke="#364253" stroke-width="1.5"/><line x1="84" y1="356" x2="876" y2="356" stroke="#364253" stroke-width="1.5"/><line x1="84" y1="176" x2="84" y2="356" stroke="#364253" stroke-width="1.5"/><line x1="348" y1="176" x2="348" y2="356" stroke="#364253" stroke-width="1.5"/><line x1="612" y1="176" x2="612" y2="356" stroke="#364253" stroke-width="1.5"/><line x1="876" y1="176" x2="876" y2="356" stroke="#364253" stroke-width="1.5"/>
    <text x="216" y="210" text-anchor="middle" font-family="Inter, Arial, sans-serif" font-size="16" font-weight="800" letter-spacing="0" font-style="" fill="#c9c2b8">bron</text><text x="480" y="210" text-anchor="middle" font-family="Inter, Arial, sans-serif" font-size="16" font-weight="800" letter-spacing="0" font-style="" fill="#c9c2b8">waarde 1</text><text x="744" y="210" text-anchor="middle" font-family="Inter, Arial, sans-serif" font-size="16" font-weight="800" letter-spacing="0" font-style="" fill="#c9c2b8">waarde 2</text>
    
      <rect x="92" y="244" width="248" height="44" rx="8" fill="#352813" stroke="#fbbf24" stroke-width="2"/>
      <text x="216" y="274" text-anchor="middle" font-family="Inter, Arial, sans-serif" font-size="17" font-weight="750" letter-spacing="0" font-style="" fill="#f2efe8">oude waarde</text>
    
      <rect x="356" y="244" width="248" height="44" rx="8" fill="#352813" stroke="#fbbf24" stroke-width="2"/>
      <text x="480" y="274" text-anchor="middle" font-family="Inter, Arial, sans-serif" font-size="17" font-weight="750" letter-spacing="0" font-style="" fill="#f2efe8">nieuwe waarde</text>
    
    
    <rect x="84" y="398" width="792" height="92" rx="10" fill="#0c1015" stroke="#364253" stroke-width="1"/>
    <text x="108" y="428" text-anchor="start" font-family="Inter, Arial, sans-serif" font-size="18" font-weight="500" letter-spacing="0" font-style="" fill="#f2efe8">Noteer rij, kolom, grootheid en eenheid voordat je rekent.</text>
  
  </svg>