<svg xmlns="http://www.w3.org/2000/svg" width="760" height="440" viewBox="0 0 760 440" role="img" aria-label="selected_source_values_for_calculation">
    
    <rect width="760" height="440" rx="20" fill="#fbf8ef"/>
    <rect x="22" y="22" width="716" height="396" rx="18" fill="#ffffff" stroke="#d9d0be" stroke-width="1.5"/>
    <text x="54" y="64" text-anchor="start" font-family="Inter, Arial, sans-serif" font-size="13" font-weight="800" letter-spacing="2" font-style="" fill="#d08732">COMPANION VISUAL</text>
    <text x="54" y="104" text-anchor="start" font-family="Fraunces, Georgia, serif" font-size="25" font-weight="700" letter-spacing="0" font-style="italic" fill="#1b1a17">Tabelspoor</text>
    <text x="54" y="136" text-anchor="start" font-family="Inter, Arial, sans-serif" font-size="15" font-weight="500" letter-spacing="0" font-style="" fill="#4a463d">selected_source_values_for_calculation</text>
  
    <rect x="74" y="142" width="612" height="144" rx="8" fill="#ffffff" stroke="#d9d0be" stroke-width="1.5"/>
    <line x1="74" y1="142" x2="686" y2="142" stroke="#d9d0be" stroke-width="1.5"/><line x1="74" y1="190" x2="686" y2="190" stroke="#d9d0be" stroke-width="1.5"/><line x1="74" y1="238" x2="686" y2="238" stroke="#d9d0be" stroke-width="1.5"/><line x1="74" y1="286" x2="686" y2="286" stroke="#d9d0be" stroke-width="1.5"/><line x1="74" y1="142" x2="74" y2="286" stroke="#d9d0be" stroke-width="1.5"/><line x1="278" y1="142" x2="278" y2="286" stroke="#d9d0be" stroke-width="1.5"/><line x1="482" y1="142" x2="482" y2="286" stroke="#d9d0be" stroke-width="1.5"/><line x1="686" y1="142" x2="686" y2="286" stroke="#d9d0be" stroke-width="1.5"/>
    <text x="176" y="176" text-anchor="middle" font-family="Inter, Arial, sans-serif" font-size="13" font-weight="800" letter-spacing="0" font-style="" fill="#4a463d">bron</text><text x="380" y="176" text-anchor="middle" font-family="Inter, Arial, sans-serif" font-size="13" font-weight="800" letter-spacing="0" font-style="" fill="#4a463d">waarde 1</text><text x="584" y="176" text-anchor="middle" font-family="Inter, Arial, sans-serif" font-size="13" font-weight="800" letter-spacing="0" font-style="" fill="#4a463d">waarde 2</text>
    
      <rect x="82" y="198" width="188" height="32" rx="8" fill="#f5ead8" stroke="#d08732" stroke-width="2"/>
      <text x="176" y="228" text-anchor="middle" font-family="Inter, Arial, sans-serif" font-size="14" font-weight="750" letter-spacing="0" font-style="" fill="#1b1a17">oude waarde</text>
    
      <rect x="286" y="198" width="188" height="32" rx="8" fill="#f5ead8" stroke="#d08732" stroke-width="2"/>
      <text x="380" y="228" text-anchor="middle" font-family="Inter, Arial, sans-serif" font-size="14" font-weight="750" letter-spacing="0" font-style="" fill="#1b1a17">nieuwe waarde</text>
    
    
    <rect x="74" y="314" width="612" height="74" rx="10" fill="#efe8d7" stroke="#d9d0be" stroke-width="1"/>
    <text x="98" y="344" text-anchor="start" font-family="Inter, Arial, sans-serif" font-size="14" font-weight="500" letter-spacing="0" font-style="" fill="#1b1a17">Noteer rij, kolom, grootheid en eenheid voordat je rekent.</text>
  
  </svg>