<svg xmlns="http://www.w3.org/2000/svg" width="960" height="648" viewBox="0 0 960 648" role="img" aria-label="selected_source_values_for_calculation">
    
      <rect width="960" height="648" rx="28" fill="#fbf8ef"/>
      <rect x="32" y="32" width="896" height="584" rx="24" fill="#ffffff" stroke="#d9d0be" stroke-width="1.5"/>
    
    <rect x="84" y="72" width="792" height="180" rx="8" fill="#ffffff" stroke="#d9d0be" stroke-width="1.5"/>
    <line x1="84" y1="72" x2="876" y2="72" stroke="#d9d0be" stroke-width="1.5"/><line x1="84" y1="132" x2="876" y2="132" stroke="#d9d0be" stroke-width="1.5"/><line x1="84" y1="192" x2="876" y2="192" stroke="#d9d0be" stroke-width="1.5"/><line x1="84" y1="252" x2="876" y2="252" stroke="#d9d0be" stroke-width="1.5"/><line x1="84" y1="72" x2="84" y2="252" stroke="#d9d0be" stroke-width="1.5"/><line x1="348" y1="72" x2="348" y2="252" stroke="#d9d0be" stroke-width="1.5"/><line x1="612" y1="72" x2="612" y2="252" stroke="#d9d0be" stroke-width="1.5"/><line x1="876" y1="72" x2="876" y2="252" stroke="#d9d0be" stroke-width="1.5"/>
    <text x="216" y="106" text-anchor="middle" font-family="Inter, Arial, sans-serif" font-size="16" font-weight="800" letter-spacing="0" font-style="" fill="#4a463d">bron</text><text x="480" y="106" text-anchor="middle" font-family="Inter, Arial, sans-serif" font-size="16" font-weight="800" letter-spacing="0" font-style="" fill="#4a463d">waarde 1</text><text x="744" y="106" text-anchor="middle" font-family="Inter, Arial, sans-serif" font-size="16" font-weight="800" letter-spacing="0" font-style="" fill="#4a463d">waarde 2</text>
    
      <rect x="92" y="140" width="248" height="44" rx="8" fill="#f5ead8" stroke="#d08732" stroke-width="2"/>
      <text x="216" y="170" text-anchor="middle" font-family="Inter, Arial, sans-serif" font-size="17" font-weight="750" letter-spacing="0" font-style="" fill="#1b1a17">oude waarde</text>
    
      <rect x="356" y="140" width="248" height="44" rx="8" fill="#f5ead8" stroke="#d08732" stroke-width="2"/>
      <text x="480" y="170" text-anchor="middle" font-family="Inter, Arial, sans-serif" font-size="17" font-weight="750" letter-spacing="0" font-style="" fill="#1b1a17">nieuwe waarde</text>
    
    
    <rect x="84" y="294" width="792" height="92" rx="10" fill="#efe8d7" stroke="#d9d0be" stroke-width="1"/>
    <text x="108" y="324" text-anchor="start" font-family="Inter, Arial, sans-serif" font-size="18" font-weight="500" letter-spacing="0" font-style="" fill="#1b1a17">Noteer rij, kolom, grootheid en eenheid voordat je rekent.</text>
  
  </svg>