<svg xmlns="http://www.w3.org/2000/svg" width="1000" height="640" viewBox="0 0 1000 640" role="img" aria-label="selected_source_values_for_calculation">
    
    <rect width="1000" height="640" rx="28" fill="#fbf8ef"/>
    <rect x="32" y="32" width="936" height="576" rx="24" fill="#ffffff" stroke="#d9d0be" stroke-width="1.5"/>
    <text x="64" y="74" text-anchor="start" font-family="Inter, Arial, sans-serif" font-size="18" font-weight="800" letter-spacing="2" font-style="" fill="#d08732">COMPANION VISUAL</text>
    <text x="64" y="114" text-anchor="start" font-family="Fraunces, Georgia, serif" font-size="34" font-weight="700" letter-spacing="0" font-style="italic" fill="#1b1a17">Tabelspoor</text>
    <text x="64" y="146" text-anchor="start" font-family="Inter, Arial, sans-serif" font-size="18" font-weight="500" letter-spacing="0" font-style="" fill="#4a463d">selected_source_values_for_calculation</text>
  
    <rect x="84" y="176" width="832" height="180" rx="8" fill="#ffffff" stroke="#d9d0be" stroke-width="1.5"/>
    <line x1="84" y1="176" x2="916" y2="176" stroke="#d9d0be" stroke-width="1.5"/><line x1="84" y1="236" x2="916" y2="236" stroke="#d9d0be" stroke-width="1.5"/><line x1="84" y1="296" x2="916" y2="296" stroke="#d9d0be" stroke-width="1.5"/><line x1="84" y1="356" x2="916" y2="356" stroke="#d9d0be" stroke-width="1.5"/><line x1="84" y1="176" x2="84" y2="356" stroke="#d9d0be" stroke-width="1.5"/><line x1="361" y1="176" x2="361" y2="356" stroke="#d9d0be" stroke-width="1.5"/><line x1="638" y1="176" x2="638" y2="356" stroke="#d9d0be" stroke-width="1.5"/><line x1="915" y1="176" x2="915" y2="356" stroke="#d9d0be" stroke-width="1.5"/>
    <text x="222.5" y="210" text-anchor="middle" font-family="Inter, Arial, sans-serif" font-size="16" font-weight="800" letter-spacing="0" font-style="" fill="#4a463d">bron</text><text x="499.5" y="210" text-anchor="middle" font-family="Inter, Arial, sans-serif" font-size="16" font-weight="800" letter-spacing="0" font-style="" fill="#4a463d">waarde 1</text><text x="776.5" y="210" text-anchor="middle" font-family="Inter, Arial, sans-serif" font-size="16" font-weight="800" letter-spacing="0" font-style="" fill="#4a463d">waarde 2</text>
    
      <rect x="92" y="244" width="261" height="44" rx="8" fill="#f5ead8" stroke="#d08732" stroke-width="2"/>
      <text x="222.5" y="274" text-anchor="middle" font-family="Inter, Arial, sans-serif" font-size="17" font-weight="750" letter-spacing="0" font-style="" fill="#1b1a17">oude waarde</text>
    
      <rect x="369" y="244" width="261" height="44" rx="8" fill="#f5ead8" stroke="#d08732" stroke-width="2"/>
      <text x="499.5" y="274" text-anchor="middle" font-family="Inter, Arial, sans-serif" font-size="17" font-weight="750" letter-spacing="0" font-style="" fill="#1b1a17">nieuwe waarde</text>
    
    
    <rect x="84" y="398" width="832" height="92" rx="10" fill="#efe8d7" stroke="#d9d0be" stroke-width="1"/>
    <text x="108" y="428" text-anchor="start" font-family="Inter, Arial, sans-serif" font-size="18" font-weight="500" letter-spacing="0" font-style="" fill="#1b1a17">Noteer rij, kolom, grootheid en eenheid voordat je rekent.</text>
  
  </svg>