<svg xmlns="http://www.w3.org/2000/svg" width="800" height="394" viewBox="0 0 800 394"><rect width="800" height="394" fill="#f7fafb" rx="8"/><text x="92.00" y="24.00" font-family="Lato,DejaVu Sans,sans-serif" font-size="16" fill="#183247" text-anchor="start" font-weight="bold">P (€ per krat peren)</text><text x="399.00" y="380.00" font-family="Lato,DejaVu Sans,sans-serif" font-size="16" fill="#183247" text-anchor="middle" font-weight="bold">Q (kratten peren per week)</text><line x1="92.0000" y1="316.0000" x2="92.0000" y2="44.0000" stroke="#dde6eb" stroke-width="0.65"/><text x="92.00" y="337.00" font-family="Lato,DejaVu Sans,sans-serif" font-size="14" fill="#183247" text-anchor="middle" font-weight="normal">0</text><line x1="168.7500" y1="316.0000" x2="168.7500" y2="44.0000" stroke="#dde6eb" stroke-width="0.65"/><text x="168.75" y="337.00" font-family="Lato,DejaVu Sans,sans-serif" font-size="14" fill="#183247" text-anchor="middle" font-weight="normal">20</text><line x1="245.5000" y1="316.0000" x2="245.5000" y2="44.0000" stroke="#dde6eb" stroke-width="0.65"/><text x="245.50" y="337.00" font-family="Lato,DejaVu Sans,sans-serif" font-size="14" fill="#183247" text-anchor="middle" font-weight="normal">40</text><line x1="322.2500" y1="316.0000" x2="322.2500" y2="44.0000" stroke="#dde6eb" stroke-width="0.65"/><text x="322.25" y="337.00" font-family="Lato,DejaVu Sans,sans-serif" font-size="14" fill="#183247" text-anchor="middle" font-weight="normal">60</text><line x1="399.0000" y1="316.0000" x2="399.0000" y2="44.0000" stroke="#dde6eb" stroke-width="0.65"/><text x="399.00" y="337.00" font-family="Lato,DejaVu Sans,sans-serif" font-size="14" fill="#183247" text-anchor="middle" font-weight="normal">80</text><line x1="475.7500" y1="316.0000" x2="475.7500" y2="44.0000" stroke="#dde6eb" stroke-width="0.65"/><text x="475.75" y="337.00" font-family="Lato,DejaVu Sans,sans-serif" font-size="14" fill="#183247" text-anchor="middle" font-weight="normal">100</text><line x1="552.5000" y1="316.0000" x2="552.5000" y2="44.0000" stroke="#dde6eb" stroke-width="0.65"/><text x="552.50" y="337.00" font-family="Lato,DejaVu Sans,sans-serif" font-size="14" fill="#183247" text-anchor="middle" font-weight="normal">120</text><line x1="629.2500" y1="316.0000" x2="629.2500" y2="44.0000" stroke="#dde6eb" stroke-width="0.65"/><text x="629.25" y="337.00" font-family="Lato,DejaVu Sans,sans-serif" font-size="14" fill="#183247" text-anchor="middle" font-weight="normal">140</text><line x1="706.0000" y1="316.0000" x2="706.0000" y2="44.0000" stroke="#dde6eb" stroke-width="0.65"/><text x="706.00" y="337.00" font-family="Lato,DejaVu Sans,sans-serif" font-size="14" fill="#183247" text-anchor="middle" font-weight="normal">160</text><line x1="92.0000" y1="316.0000" x2="706.0000" y2="316.0000" stroke="#dde6eb" stroke-width="0.65"/><text x="82.00" y="321.00" font-family="Lato,DejaVu Sans,sans-serif" font-size="14" fill="#183247" text-anchor="end" font-weight="normal">0</text><line x1="92.0000" y1="259.3333" x2="706.0000" y2="259.3333" stroke="#dde6eb" stroke-width="0.65"/><text x="82.00" y="264.33" font-family="Lato,DejaVu Sans,sans-serif" font-size="14" fill="#183247" text-anchor="end" font-weight="normal">5</text><line x1="92.0000" y1="202.6667" x2="706.0000" y2="202.6667" stroke="#dde6eb" stroke-width="0.65"/><text x="82.00" y="207.67" font-family="Lato,DejaVu Sans,sans-serif" font-size="14" fill="#183247" text-anchor="end" font-weight="normal">10</text><line x1="92.0000" y1="146.0000" x2="706.0000" y2="146.0000" stroke="#dde6eb" stroke-width="0.65"/><line x1="92.0000" y1="89.3333" x2="706.0000" y2="89.3333" stroke="#dde6eb" stroke-width="0.65"/><text x="82.00" y="94.33" font-family="Lato,DejaVu Sans,sans-serif" font-size="14" fill="#183247" text-anchor="end" font-weight="normal">20</text><line x1="92.0000" y1="316.0000" x2="92.0000" y2="44.0000" stroke="#183247" stroke-width="1.6"/><line x1="92.0000" y1="316.0000" x2="706.0000" y2="316.0000" stroke="#183247" stroke-width="1.6"/><polygon points="245.5000,316.0000 399.0000,316.0000 399.0000,157.3333 245.5000,157.3333" fill="#76559a" fill-opacity="0.19" stroke="#76559a" stroke-width="1"/><text x="322.25" y="241.67" font-family="Lato,DejaVu Sans,sans-serif" font-size="16" fill="#76559a" text-anchor="middle" font-weight="bold">U</text><line x1="92.0000" y1="112.0000" x2="706.0000" y2="293.3333" stroke="#17688f" stroke-width="2.7"/><text x="714.00" y="298.33" font-family="Lato,DejaVu Sans,sans-serif" font-size="15" fill="#17688f" text-anchor="start" font-weight="bold">V</text><line x1="92.0000" y1="248.0000" x2="706.0000" y2="66.6667" stroke="#22796b" stroke-width="2.7"/><text x="714.00" y="71.67" font-family="Lato,DejaVu Sans,sans-serif" font-size="15" fill="#22796b" text-anchor="start" font-weight="bold">A</text><line x1="92.0000" y1="157.3333" x2="706.0000" y2="157.3333" stroke="#af641e" stroke-width="2.2"/><text x="714.00" y="162.33" font-family="Lato,DejaVu Sans,sans-serif" font-size="14" fill="#af641e" text-anchor="start" font-weight="bold">Pmin</text><circle cx="322.2500" cy="180.0000" r="4.5" fill="#183247"/><text x="332.25" y="203.00" font-family="Lato,DejaVu Sans,sans-serif" font-size="14" fill="#657986" text-anchor="start" font-weight="normal">E₀</text><line x1="92.0000" y1="157.3333" x2="245.5000" y2="157.3333" stroke="#657986" stroke-width="1" stroke-dasharray="5 4"/><text x="83.00" y="162.33" font-family="Lato,DejaVu Sans,sans-serif" font-size="14" fill="#183247" text-anchor="end" font-weight="normal">P=14</text><line x1="92.0000" y1="180.0000" x2="245.5000" y2="180.0000" stroke="#657986" stroke-width="1" stroke-dasharray="5 4"/><text x="83.00" y="185.00" font-family="Lato,DejaVu Sans,sans-serif" font-size="14" fill="#183247" text-anchor="end" font-weight="normal">P₀=12</text><circle cx="245.5000" cy="157.3333" r="4.5" fill="#183247"/><line x1="245.5000" y1="316.0000" x2="245.5000" y2="157.3333" stroke="#657986" stroke-width="1" stroke-dasharray="5 4"/><circle cx="399.0000" cy="157.3333" r="4.5" fill="#183247"/><line x1="399.0000" y1="316.0000" x2="399.0000" y2="157.3333" stroke="#657986" stroke-width="1" stroke-dasharray="5 4"/><text x="245.50" y="359.00" font-family="Lato,DejaVu Sans,sans-serif" font-size="14" fill="#17688f" text-anchor="middle" font-weight="bold">Qv</text><text x="399.00" y="359.00" font-family="Lato,DejaVu Sans,sans-serif" font-size="14" fill="#22796b" text-anchor="middle" font-weight="bold">Qa</text></svg>