<svg xmlns="http://www.w3.org/2000/svg" width="900" height="440" viewBox="0 0 900 440" role="img"><title>De capaciteit kan eerder een grens stellen</title>
<defs><marker id="arrow" viewBox="0 0 10 10" refX="8" refY="5" markerWidth="5" markerHeight="5" orient="auto-start-reverse"><path d="M0,0 L10,5 L0,10" fill="none" stroke="#536777" stroke-width="1.5"/></marker><pattern id="hatch" width="9" height="9" patternUnits="userSpaceOnUse"><path d="M-2,2 L2,-2 M0,9 L9,0 M7,11 L11,7" stroke="#183247" stroke-opacity=".22" stroke-width="1"/></pattern></defs>
<rect width="900" height="440" rx="8" fill="#f5f8fa"/>
<text x="447.0000" y="27.0000" font-family="Lato,DejaVu Sans,sans-serif" font-size="21" font-weight="700" text-anchor="middle" fill="#183247">De capaciteit kan eerder een grens stellen</text>
<text x="78.0000" y="54.0000" font-family="Lato,DejaVu Sans,sans-serif" font-size="17" font-weight="400" text-anchor="start" fill="#183247">Bedrag (€ per kg)</text>
<defs><clipPath id="p0"><rect x="78" y="78" width="738" height="275"/></clipPath></defs>
<line x1="78.0000" y1="78.0000" x2="78.0000" y2="353.0000" stroke="#dbe4e9" stroke-width="0.7"/>
<text x="78.0000" y="378.0000" font-family="Lato,DejaVu Sans,sans-serif" font-size="17" font-weight="400" text-anchor="middle" fill="#183247">0</text>
<line x1="225.6000" y1="78.0000" x2="225.6000" y2="353.0000" stroke="#dbe4e9" stroke-width="0.7"/>
<text x="225.6000" y="378.0000" font-family="Lato,DejaVu Sans,sans-serif" font-size="17" font-weight="400" text-anchor="middle" fill="#183247">20</text>
<line x1="373.2000" y1="78.0000" x2="373.2000" y2="353.0000" stroke="#dbe4e9" stroke-width="0.7"/>
<text x="373.2000" y="378.0000" font-family="Lato,DejaVu Sans,sans-serif" font-size="17" font-weight="400" text-anchor="middle" fill="#183247">40</text>
<line x1="447.0000" y1="78.0000" x2="447.0000" y2="353.0000" stroke="#dbe4e9" stroke-width="0.7"/>
<text x="447.0000" y="378.0000" font-family="Lato,DejaVu Sans,sans-serif" font-size="17" font-weight="400" text-anchor="middle" fill="#183247">50</text>
<line x1="520.8000" y1="78.0000" x2="520.8000" y2="353.0000" stroke="#dbe4e9" stroke-width="0.7"/>
<text x="520.8000" y="378.0000" font-family="Lato,DejaVu Sans,sans-serif" font-size="17" font-weight="400" text-anchor="middle" fill="#183247">60</text>
<line x1="668.4000" y1="78.0000" x2="668.4000" y2="353.0000" stroke="#dbe4e9" stroke-width="0.7"/>
<text x="668.4000" y="378.0000" font-family="Lato,DejaVu Sans,sans-serif" font-size="17" font-weight="400" text-anchor="middle" fill="#183247">80</text>
<line x1="816.0000" y1="78.0000" x2="816.0000" y2="353.0000" stroke="#dbe4e9" stroke-width="0.7"/>
<text x="816.0000" y="378.0000" font-family="Lato,DejaVu Sans,sans-serif" font-size="17" font-weight="400" text-anchor="middle" fill="#183247">100</text>
<line x1="78.0000" y1="353.0000" x2="816.0000" y2="353.0000" stroke="#dbe4e9" stroke-width="0.7"/>
<text x="67.0000" y="358.0000" font-family="Lato,DejaVu Sans,sans-serif" font-size="17" font-weight="400" text-anchor="end" fill="#183247">0</text>
<line x1="78.0000" y1="307.1667" x2="816.0000" y2="307.1667" stroke="#dbe4e9" stroke-width="0.7"/>
<text x="67.0000" y="312.1667" font-family="Lato,DejaVu Sans,sans-serif" font-size="17" font-weight="400" text-anchor="end" fill="#183247">5</text>
<line x1="78.0000" y1="261.3333" x2="816.0000" y2="261.3333" stroke="#dbe4e9" stroke-width="0.7"/>
<text x="67.0000" y="266.3333" font-family="Lato,DejaVu Sans,sans-serif" font-size="17" font-weight="400" text-anchor="end" fill="#183247">10</text>
<line x1="78.0000" y1="215.5000" x2="816.0000" y2="215.5000" stroke="#dbe4e9" stroke-width="0.7"/>
<text x="67.0000" y="220.5000" font-family="Lato,DejaVu Sans,sans-serif" font-size="17" font-weight="400" text-anchor="end" fill="#183247">15</text>
<line x1="78.0000" y1="169.6667" x2="816.0000" y2="169.6667" stroke="#dbe4e9" stroke-width="0.7"/>
<text x="67.0000" y="174.6667" font-family="Lato,DejaVu Sans,sans-serif" font-size="17" font-weight="400" text-anchor="end" fill="#183247">20</text>
<line x1="78.0000" y1="123.8333" x2="816.0000" y2="123.8333" stroke="#dbe4e9" stroke-width="0.7"/>
<text x="67.0000" y="128.8333" font-family="Lato,DejaVu Sans,sans-serif" font-size="17" font-weight="400" text-anchor="end" fill="#183247">25</text>
<line x1="78.0000" y1="78.0000" x2="816.0000" y2="78.0000" stroke="#dbe4e9" stroke-width="0.7"/>
<text x="67.0000" y="83.0000" font-family="Lato,DejaVu Sans,sans-serif" font-size="17" font-weight="400" text-anchor="end" fill="#183247">30</text>
<line x1="78.0000" y1="353.0000" x2="823.0000" y2="353.0000" stroke="#183247" stroke-width="1.7" marker-end="url(#arrow)"/>
<line x1="78.0000" y1="353.0000" x2="78.0000" y2="73.0000" stroke="#183247" stroke-width="1.7" marker-end="url(#arrow)"/>
<text x="447.0000" y="405.0000" font-family="Lato,DejaVu Sans,sans-serif" font-size="18" font-weight="400" text-anchor="middle" fill="#183247">q (kg per week)</text>
<polyline data-panel="p0" data-curve="GO = P" points="78.00000000,78.00000000 79.23000000,78.30555556 80.46000000,78.61111111 81.69000000,78.91666667 82.92000000,79.22222222 84.15000000,79.52777778 85.38000000,79.83333333 86.61000000,80.13888889 87.84000000,80.44444444 89.07000000,80.75000000 90.30000000,81.05555556 91.53000000,81.36111111 92.76000000,81.66666667 93.99000000,81.97222222 95.22000000,82.27777778 96.45000000,82.58333333 97.68000000,82.88888889 98.91000000,83.19444444 100.14000000,83.50000000 101.37000000,83.80555556 102.60000000,84.11111111 103.83000000,84.41666667 105.06000000,84.72222222 106.29000000,85.02777778 107.52000000,85.33333333 108.75000000,85.63888889 109.98000000,85.94444444 111.21000000,86.25000000 112.44000000,86.55555556 113.67000000,86.86111111 114.90000000,87.16666667 116.13000000,87.47222222 117.36000000,87.77777778 118.59000000,88.08333333 119.82000000,88.38888889 121.05000000,88.69444444 122.28000000,89.00000000 123.51000000,89.30555556 124.74000000,89.61111111 125.97000000,89.91666667 127.20000000,90.22222222 128.43000000,90.52777778 129.66000000,90.83333333 130.89000000,91.13888889 132.12000000,91.44444444 133.35000000,91.75000000 134.58000000,92.05555556 135.81000000,92.36111111 137.04000000,92.66666667 138.27000000,92.97222222 139.50000000,93.27777778 140.73000000,93.58333333 141.96000000,93.88888889 143.19000000,94.19444444 144.42000000,94.50000000 145.65000000,94.80555556 146.88000000,95.11111111 148.11000000,95.41666667 149.34000000,95.72222222 150.57000000,96.02777778 151.80000000,96.33333333 153.03000000,96.63888889 154.26000000,96.94444444 155.49000000,97.25000000 156.72000000,97.55555556 157.95000000,97.86111111 159.18000000,98.16666667 160.41000000,98.47222222 161.64000000,98.77777778 162.87000000,99.08333333 164.10000000,99.38888889 165.33000000,99.69444444 166.56000000,100.00000000 167.79000000,100.30555556 169.02000000,100.61111111 170.25000000,100.91666667 171.48000000,101.22222222 172.71000000,101.52777778 173.94000000,101.83333333 175.17000000,102.13888889 176.40000000,102.44444444 177.63000000,102.75000000 178.86000000,103.05555556 180.09000000,103.36111111 181.32000000,103.66666667 182.55000000,103.97222222 183.78000000,104.27777778 185.01000000,104.58333333 186.24000000,104.88888889 187.47000000,105.19444444 188.70000000,105.50000000 189.93000000,105.80555556 191.16000000,106.11111111 192.39000000,106.41666667 193.62000000,106.72222222 194.85000000,107.02777778 196.08000000,107.33333333 197.31000000,107.63888889 198.54000000,107.94444444 199.77000000,108.25000000 201.00000000,108.55555556 202.23000000,108.86111111 203.46000000,109.16666667 204.69000000,109.47222222 205.92000000,109.77777778 207.15000000,110.08333333 208.38000000,110.38888889 209.61000000,110.69444444 210.84000000,111.00000000 212.07000000,111.30555556 213.30000000,111.61111111 214.53000000,111.91666667 215.76000000,112.22222222 216.99000000,112.52777778 218.22000000,112.83333333 219.45000000,113.13888889 220.68000000,113.44444444 221.91000000,113.75000000 223.14000000,114.05555556 224.37000000,114.36111111 225.60000000,114.66666667 226.83000000,114.97222222 228.06000000,115.27777778 229.29000000,115.58333333 230.52000000,115.88888889 231.75000000,116.19444444 232.98000000,116.50000000 234.21000000,116.80555556 235.44000000,117.11111111 236.67000000,117.41666667 237.90000000,117.72222222 239.13000000,118.02777778 240.36000000,118.33333333 241.59000000,118.63888889 242.82000000,118.94444444 244.05000000,119.25000000 245.28000000,119.55555556 246.51000000,119.86111111 247.74000000,120.16666667 248.97000000,120.47222222 250.20000000,120.77777778 251.43000000,121.08333333 252.66000000,121.38888889 253.89000000,121.69444444 255.12000000,122.00000000 256.35000000,122.30555556 257.58000000,122.61111111 258.81000000,122.91666667 260.04000000,123.22222222 261.27000000,123.52777778 262.50000000,123.83333333 263.73000000,124.13888889 264.96000000,124.44444444 266.19000000,124.75000000 267.42000000,125.05555556 268.65000000,125.36111111 269.88000000,125.66666667 271.11000000,125.97222222 272.34000000,126.27777778 273.57000000,126.58333333 274.80000000,126.88888889 276.03000000,127.19444444 277.26000000,127.50000000 278.49000000,127.80555556 279.72000000,128.11111111 280.95000000,128.41666667 282.18000000,128.72222222 283.41000000,129.02777778 284.64000000,129.33333333 285.87000000,129.63888889 287.10000000,129.94444444 288.33000000,130.25000000 289.56000000,130.55555556 290.79000000,130.86111111 292.02000000,131.16666667 293.25000000,131.47222222 294.48000000,131.77777778 295.71000000,132.08333333 296.94000000,132.38888889 298.17000000,132.69444444 299.40000000,133.00000000 300.63000000,133.30555556 301.86000000,133.61111111 303.09000000,133.91666667 304.32000000,134.22222222 305.55000000,134.52777778 306.78000000,134.83333333 308.01000000,135.13888889 309.24000000,135.44444444 310.47000000,135.75000000 311.70000000,136.05555556 312.93000000,136.36111111 314.16000000,136.66666667 315.39000000,136.97222222 316.62000000,137.27777778 317.85000000,137.58333333 319.08000000,137.88888889 320.31000000,138.19444444 321.54000000,138.50000000 322.77000000,138.80555556 324.00000000,139.11111111 325.23000000,139.41666667 326.46000000,139.72222222 327.69000000,140.02777778 328.92000000,140.33333333 330.15000000,140.63888889 331.38000000,140.94444444 332.61000000,141.25000000 333.84000000,141.55555556 335.07000000,141.86111111 336.30000000,142.16666667 337.53000000,142.47222222 338.76000000,142.77777778 339.99000000,143.08333333 341.22000000,143.38888889 342.45000000,143.69444444 343.68000000,144.00000000 344.91000000,144.30555556 346.14000000,144.61111111 347.37000000,144.91666667 348.60000000,145.22222222 349.83000000,145.52777778 351.06000000,145.83333333 352.29000000,146.13888889 353.52000000,146.44444444 354.75000000,146.75000000 355.98000000,147.05555556 357.21000000,147.36111111 358.44000000,147.66666667 359.67000000,147.97222222 360.90000000,148.27777778 362.13000000,148.58333333 363.36000000,148.88888889 364.59000000,149.19444444 365.82000000,149.50000000 367.05000000,149.80555556 368.28000000,150.11111111 369.51000000,150.41666667 370.74000000,150.72222222 371.97000000,151.02777778 373.20000000,151.33333333 374.43000000,151.63888889 375.66000000,151.94444444 376.89000000,152.25000000 378.12000000,152.55555556 379.35000000,152.86111111 380.58000000,153.16666667 381.81000000,153.47222222 383.04000000,153.77777778 384.27000000,154.08333333 385.50000000,154.38888889 386.73000000,154.69444444 387.96000000,155.00000000 389.19000000,155.30555556 390.42000000,155.61111111 391.65000000,155.91666667 392.88000000,156.22222222 394.11000000,156.52777778 395.34000000,156.83333333 396.57000000,157.13888889 397.80000000,157.44444444 399.03000000,157.75000000 400.26000000,158.05555556 401.49000000,158.36111111 402.72000000,158.66666667 403.95000000,158.97222222 405.18000000,159.27777778 406.41000000,159.58333333 407.64000000,159.88888889 408.87000000,160.19444444 410.10000000,160.50000000 411.33000000,160.80555556 412.56000000,161.11111111 413.79000000,161.41666667 415.02000000,161.72222222 416.25000000,162.02777778 417.48000000,162.33333333 418.71000000,162.63888889 419.94000000,162.94444444 421.17000000,163.25000000 422.40000000,163.55555556 423.63000000,163.86111111 424.86000000,164.16666667 426.09000000,164.47222222 427.32000000,164.77777778 428.55000000,165.08333333 429.78000000,165.38888889 431.01000000,165.69444444 432.24000000,166.00000000 433.47000000,166.30555556 434.70000000,166.61111111 435.93000000,166.91666667 437.16000000,167.22222222 438.39000000,167.52777778 439.62000000,167.83333333 440.85000000,168.13888889 442.08000000,168.44444444 443.31000000,168.75000000 444.54000000,169.05555556 445.77000000,169.36111111 447.00000000,169.66666667 448.23000000,169.97222222 449.46000000,170.27777778 450.69000000,170.58333333 451.92000000,170.88888889 453.15000000,171.19444444 454.38000000,171.50000000 455.61000000,171.80555556 456.84000000,172.11111111 458.07000000,172.41666667 459.30000000,172.72222222 460.53000000,173.02777778 461.76000000,173.33333333 462.99000000,173.63888889 464.22000000,173.94444444 465.45000000,174.25000000 466.68000000,174.55555556 467.91000000,174.86111111 469.14000000,175.16666667 470.37000000,175.47222222 471.60000000,175.77777778 472.83000000,176.08333333 474.06000000,176.38888889 475.29000000,176.69444444 476.52000000,177.00000000 477.75000000,177.30555556 478.98000000,177.61111111 480.21000000,177.91666667 481.44000000,178.22222222 482.67000000,178.52777778 483.90000000,178.83333333 485.13000000,179.13888889 486.36000000,179.44444444 487.59000000,179.75000000 488.82000000,180.05555556 490.05000000,180.36111111 491.28000000,180.66666667 492.51000000,180.97222222 493.74000000,181.27777778 494.97000000,181.58333333 496.20000000,181.88888889 497.43000000,182.19444444 498.66000000,182.50000000 499.89000000,182.80555556 501.12000000,183.11111111 502.35000000,183.41666667 503.58000000,183.72222222 504.81000000,184.02777778 506.04000000,184.33333333 507.27000000,184.63888889 508.50000000,184.94444444 509.73000000,185.25000000 510.96000000,185.55555556 512.19000000,185.86111111 513.42000000,186.16666667 514.65000000,186.47222222 515.88000000,186.77777778 517.11000000,187.08333333 518.34000000,187.38888889 519.57000000,187.69444444 520.80000000,188.00000000 522.03000000,188.30555556 523.26000000,188.61111111 524.49000000,188.91666667 525.72000000,189.22222222 526.95000000,189.52777778 528.18000000,189.83333333 529.41000000,190.13888889 530.64000000,190.44444444 531.87000000,190.75000000 533.10000000,191.05555556 534.33000000,191.36111111 535.56000000,191.66666667 536.79000000,191.97222222 538.02000000,192.27777778 539.25000000,192.58333333 540.48000000,192.88888889 541.71000000,193.19444444 542.94000000,193.50000000 544.17000000,193.80555556 545.40000000,194.11111111 546.63000000,194.41666667 547.86000000,194.72222222 549.09000000,195.02777778 550.32000000,195.33333333 551.55000000,195.63888889 552.78000000,195.94444444 554.01000000,196.25000000 555.24000000,196.55555556 556.47000000,196.86111111 557.70000000,197.16666667 558.93000000,197.47222222 560.16000000,197.77777778 561.39000000,198.08333333 562.62000000,198.38888889 563.85000000,198.69444444 565.08000000,199.00000000 566.31000000,199.30555556 567.54000000,199.61111111 568.77000000,199.91666667 570.00000000,200.22222222 571.23000000,200.52777778 572.46000000,200.83333333 573.69000000,201.13888889 574.92000000,201.44444444 576.15000000,201.75000000 577.38000000,202.05555556 578.61000000,202.36111111 579.84000000,202.66666667 581.07000000,202.97222222 582.30000000,203.27777778 583.53000000,203.58333333 584.76000000,203.88888889 585.99000000,204.19444444 587.22000000,204.50000000 588.45000000,204.80555556 589.68000000,205.11111111 590.91000000,205.41666667 592.14000000,205.72222222 593.37000000,206.02777778 594.60000000,206.33333333 595.83000000,206.63888889 597.06000000,206.94444444 598.29000000,207.25000000 599.52000000,207.55555556 600.75000000,207.86111111 601.98000000,208.16666667 603.21000000,208.47222222 604.44000000,208.77777778 605.67000000,209.08333333 606.90000000,209.38888889 608.13000000,209.69444444 609.36000000,210.00000000 610.59000000,210.30555556 611.82000000,210.61111111 613.05000000,210.91666667 614.28000000,211.22222222 615.51000000,211.52777778 616.74000000,211.83333333 617.97000000,212.13888889 619.20000000,212.44444444 620.43000000,212.75000000 621.66000000,213.05555556 622.89000000,213.36111111 624.12000000,213.66666667 625.35000000,213.97222222 626.58000000,214.27777778 627.81000000,214.58333333 629.04000000,214.88888889 630.27000000,215.19444444 631.50000000,215.50000000 632.73000000,215.80555556 633.96000000,216.11111111 635.19000000,216.41666667 636.42000000,216.72222222 637.65000000,217.02777778 638.88000000,217.33333333 640.11000000,217.63888889 641.34000000,217.94444444 642.57000000,218.25000000 643.80000000,218.55555556 645.03000000,218.86111111 646.26000000,219.16666667 647.49000000,219.47222222 648.72000000,219.77777778 649.95000000,220.08333333 651.18000000,220.38888889 652.41000000,220.69444444 653.64000000,221.00000000 654.87000000,221.30555556 656.10000000,221.61111111 657.33000000,221.91666667 658.56000000,222.22222222 659.79000000,222.52777778 661.02000000,222.83333333 662.25000000,223.13888889 663.48000000,223.44444444 664.71000000,223.75000000 665.94000000,224.05555556 667.17000000,224.36111111 668.40000000,224.66666667 669.63000000,224.97222222 670.86000000,225.27777778 672.09000000,225.58333333 673.32000000,225.88888889 674.55000000,226.19444444 675.78000000,226.50000000 677.01000000,226.80555556 678.24000000,227.11111111 679.47000000,227.41666667 680.70000000,227.72222222 681.93000000,228.02777778 683.16000000,228.33333333 684.39000000,228.63888889 685.62000000,228.94444444 686.85000000,229.25000000 688.08000000,229.55555556 689.31000000,229.86111111 690.54000000,230.16666667 691.77000000,230.47222222 693.00000000,230.77777778 694.23000000,231.08333333 695.46000000,231.38888889 696.69000000,231.69444444 697.92000000,232.00000000 699.15000000,232.30555556 700.38000000,232.61111111 701.61000000,232.91666667 702.84000000,233.22222222 704.07000000,233.52777778 705.30000000,233.83333333 706.53000000,234.13888889 707.76000000,234.44444444 708.99000000,234.75000000 710.22000000,235.05555556 711.45000000,235.36111111 712.68000000,235.66666667 713.91000000,235.97222222 715.14000000,236.27777778 716.37000000,236.58333333 717.60000000,236.88888889 718.83000000,237.19444444 720.06000000,237.50000000 721.29000000,237.80555556 722.52000000,238.11111111 723.75000000,238.41666667 724.98000000,238.72222222 726.21000000,239.02777778 727.44000000,239.33333333 728.67000000,239.63888889 729.90000000,239.94444444 731.13000000,240.25000000 732.36000000,240.55555556 733.59000000,240.86111111 734.82000000,241.16666667 736.05000000,241.47222222 737.28000000,241.77777778 738.51000000,242.08333333 739.74000000,242.38888889 740.97000000,242.69444444 742.20000000,243.00000000 743.43000000,243.30555556 744.66000000,243.61111111 745.89000000,243.91666667 747.12000000,244.22222222 748.35000000,244.52777778 749.58000000,244.83333333 750.81000000,245.13888889 752.04000000,245.44444444 753.27000000,245.75000000 754.50000000,246.05555556 755.73000000,246.36111111 756.96000000,246.66666667 758.19000000,246.97222222 759.42000000,247.27777778 760.65000000,247.58333333 761.88000000,247.88888889 763.11000000,248.19444444 764.34000000,248.50000000 765.57000000,248.80555556 766.80000000,249.11111111 768.03000000,249.41666667 769.26000000,249.72222222 770.49000000,250.02777778 771.72000000,250.33333333 772.95000000,250.63888889 774.18000000,250.94444444 775.41000000,251.25000000 776.64000000,251.55555556 777.87000000,251.86111111 779.10000000,252.16666667 780.33000000,252.47222222 781.56000000,252.77777778 782.79000000,253.08333333 784.02000000,253.38888889 785.25000000,253.69444444 786.48000000,254.00000000 787.71000000,254.30555556 788.94000000,254.61111111 790.17000000,254.91666667 791.40000000,255.22222222 792.63000000,255.52777778 793.86000000,255.83333333 795.09000000,256.13888889 796.32000000,256.44444444 797.55000000,256.75000000 798.78000000,257.05555556 800.01000000,257.36111111 801.24000000,257.66666667 802.47000000,257.97222222 803.70000000,258.27777778 804.93000000,258.58333333 806.16000000,258.88888889 807.39000000,259.19444444 808.62000000,259.50000000 809.85000000,259.80555556 811.08000000,260.11111111 812.31000000,260.41666667 813.54000000,260.72222222 814.77000000,261.02777778 816.00000000,261.33333333" fill="none" stroke="#146d9b" stroke-width="3" clip-path="url(#p0)"/>
<text x="609.3600" y="197.0000" font-family="Lato,DejaVu Sans,sans-serif" font-size="18" font-weight="700" text-anchor="start" fill="#146d9b">GO = P</text>
<polyline data-panel="p0" data-curve="MO" points="78.00000000,78.00000000 79.23000000,78.61111111 80.46000000,79.22222222 81.69000000,79.83333333 82.92000000,80.44444444 84.15000000,81.05555556 85.38000000,81.66666667 86.61000000,82.27777778 87.84000000,82.88888889 89.07000000,83.50000000 90.30000000,84.11111111 91.53000000,84.72222222 92.76000000,85.33333333 93.99000000,85.94444444 95.22000000,86.55555556 96.45000000,87.16666667 97.68000000,87.77777778 98.91000000,88.38888889 100.14000000,89.00000000 101.37000000,89.61111111 102.60000000,90.22222222 103.83000000,90.83333333 105.06000000,91.44444444 106.29000000,92.05555556 107.52000000,92.66666667 108.75000000,93.27777778 109.98000000,93.88888889 111.21000000,94.50000000 112.44000000,95.11111111 113.67000000,95.72222222 114.90000000,96.33333333 116.13000000,96.94444444 117.36000000,97.55555556 118.59000000,98.16666667 119.82000000,98.77777778 121.05000000,99.38888889 122.28000000,100.00000000 123.51000000,100.61111111 124.74000000,101.22222222 125.97000000,101.83333333 127.20000000,102.44444444 128.43000000,103.05555556 129.66000000,103.66666667 130.89000000,104.27777778 132.12000000,104.88888889 133.35000000,105.50000000 134.58000000,106.11111111 135.81000000,106.72222222 137.04000000,107.33333333 138.27000000,107.94444444 139.50000000,108.55555556 140.73000000,109.16666667 141.96000000,109.77777778 143.19000000,110.38888889 144.42000000,111.00000000 145.65000000,111.61111111 146.88000000,112.22222222 148.11000000,112.83333333 149.34000000,113.44444444 150.57000000,114.05555556 151.80000000,114.66666667 153.03000000,115.27777778 154.26000000,115.88888889 155.49000000,116.50000000 156.72000000,117.11111111 157.95000000,117.72222222 159.18000000,118.33333333 160.41000000,118.94444444 161.64000000,119.55555556 162.87000000,120.16666667 164.10000000,120.77777778 165.33000000,121.38888889 166.56000000,122.00000000 167.79000000,122.61111111 169.02000000,123.22222222 170.25000000,123.83333333 171.48000000,124.44444444 172.71000000,125.05555556 173.94000000,125.66666667 175.17000000,126.27777778 176.40000000,126.88888889 177.63000000,127.50000000 178.86000000,128.11111111 180.09000000,128.72222222 181.32000000,129.33333333 182.55000000,129.94444444 183.78000000,130.55555556 185.01000000,131.16666667 186.24000000,131.77777778 187.47000000,132.38888889 188.70000000,133.00000000 189.93000000,133.61111111 191.16000000,134.22222222 192.39000000,134.83333333 193.62000000,135.44444444 194.85000000,136.05555556 196.08000000,136.66666667 197.31000000,137.27777778 198.54000000,137.88888889 199.77000000,138.50000000 201.00000000,139.11111111 202.23000000,139.72222222 203.46000000,140.33333333 204.69000000,140.94444444 205.92000000,141.55555556 207.15000000,142.16666667 208.38000000,142.77777778 209.61000000,143.38888889 210.84000000,144.00000000 212.07000000,144.61111111 213.30000000,145.22222222 214.53000000,145.83333333 215.76000000,146.44444444 216.99000000,147.05555556 218.22000000,147.66666667 219.45000000,148.27777778 220.68000000,148.88888889 221.91000000,149.50000000 223.14000000,150.11111111 224.37000000,150.72222222 225.60000000,151.33333333 226.83000000,151.94444444 228.06000000,152.55555556 229.29000000,153.16666667 230.52000000,153.77777778 231.75000000,154.38888889 232.98000000,155.00000000 234.21000000,155.61111111 235.44000000,156.22222222 236.67000000,156.83333333 237.90000000,157.44444444 239.13000000,158.05555556 240.36000000,158.66666667 241.59000000,159.27777778 242.82000000,159.88888889 244.05000000,160.50000000 245.28000000,161.11111111 246.51000000,161.72222222 247.74000000,162.33333333 248.97000000,162.94444444 250.20000000,163.55555556 251.43000000,164.16666667 252.66000000,164.77777778 253.89000000,165.38888889 255.12000000,166.00000000 256.35000000,166.61111111 257.58000000,167.22222222 258.81000000,167.83333333 260.04000000,168.44444444 261.27000000,169.05555556 262.50000000,169.66666667 263.73000000,170.27777778 264.96000000,170.88888889 266.19000000,171.50000000 267.42000000,172.11111111 268.65000000,172.72222222 269.88000000,173.33333333 271.11000000,173.94444444 272.34000000,174.55555556 273.57000000,175.16666667 274.80000000,175.77777778 276.03000000,176.38888889 277.26000000,177.00000000 278.49000000,177.61111111 279.72000000,178.22222222 280.95000000,178.83333333 282.18000000,179.44444444 283.41000000,180.05555556 284.64000000,180.66666667 285.87000000,181.27777778 287.10000000,181.88888889 288.33000000,182.50000000 289.56000000,183.11111111 290.79000000,183.72222222 292.02000000,184.33333333 293.25000000,184.94444444 294.48000000,185.55555556 295.71000000,186.16666667 296.94000000,186.77777778 298.17000000,187.38888889 299.40000000,188.00000000 300.63000000,188.61111111 301.86000000,189.22222222 303.09000000,189.83333333 304.32000000,190.44444444 305.55000000,191.05555556 306.78000000,191.66666667 308.01000000,192.27777778 309.24000000,192.88888889 310.47000000,193.50000000 311.70000000,194.11111111 312.93000000,194.72222222 314.16000000,195.33333333 315.39000000,195.94444444 316.62000000,196.55555556 317.85000000,197.16666667 319.08000000,197.77777778 320.31000000,198.38888889 321.54000000,199.00000000 322.77000000,199.61111111 324.00000000,200.22222222 325.23000000,200.83333333 326.46000000,201.44444444 327.69000000,202.05555556 328.92000000,202.66666667 330.15000000,203.27777778 331.38000000,203.88888889 332.61000000,204.50000000 333.84000000,205.11111111 335.07000000,205.72222222 336.30000000,206.33333333 337.53000000,206.94444444 338.76000000,207.55555556 339.99000000,208.16666667 341.22000000,208.77777778 342.45000000,209.38888889 343.68000000,210.00000000 344.91000000,210.61111111 346.14000000,211.22222222 347.37000000,211.83333333 348.60000000,212.44444444 349.83000000,213.05555556 351.06000000,213.66666667 352.29000000,214.27777778 353.52000000,214.88888889 354.75000000,215.50000000 355.98000000,216.11111111 357.21000000,216.72222222 358.44000000,217.33333333 359.67000000,217.94444444 360.90000000,218.55555556 362.13000000,219.16666667 363.36000000,219.77777778 364.59000000,220.38888889 365.82000000,221.00000000 367.05000000,221.61111111 368.28000000,222.22222222 369.51000000,222.83333333 370.74000000,223.44444444 371.97000000,224.05555556 373.20000000,224.66666667 374.43000000,225.27777778 375.66000000,225.88888889 376.89000000,226.50000000 378.12000000,227.11111111 379.35000000,227.72222222 380.58000000,228.33333333 381.81000000,228.94444444 383.04000000,229.55555556 384.27000000,230.16666667 385.50000000,230.77777778 386.73000000,231.38888889 387.96000000,232.00000000 389.19000000,232.61111111 390.42000000,233.22222222 391.65000000,233.83333333 392.88000000,234.44444444 394.11000000,235.05555556 395.34000000,235.66666667 396.57000000,236.27777778 397.80000000,236.88888889 399.03000000,237.50000000 400.26000000,238.11111111 401.49000000,238.72222222 402.72000000,239.33333333 403.95000000,239.94444444 405.18000000,240.55555556 406.41000000,241.16666667 407.64000000,241.77777778 408.87000000,242.38888889 410.10000000,243.00000000 411.33000000,243.61111111 412.56000000,244.22222222 413.79000000,244.83333333 415.02000000,245.44444444 416.25000000,246.05555556 417.48000000,246.66666667 418.71000000,247.27777778 419.94000000,247.88888889 421.17000000,248.50000000 422.40000000,249.11111111 423.63000000,249.72222222 424.86000000,250.33333333 426.09000000,250.94444444 427.32000000,251.55555556 428.55000000,252.16666667 429.78000000,252.77777778 431.01000000,253.38888889 432.24000000,254.00000000 433.47000000,254.61111111 434.70000000,255.22222222 435.93000000,255.83333333 437.16000000,256.44444444 438.39000000,257.05555556 439.62000000,257.66666667 440.85000000,258.27777778 442.08000000,258.88888889 443.31000000,259.50000000 444.54000000,260.11111111 445.77000000,260.72222222 447.00000000,261.33333333 448.23000000,261.94444444 449.46000000,262.55555556 450.69000000,263.16666667 451.92000000,263.77777778 453.15000000,264.38888889 454.38000000,265.00000000 455.61000000,265.61111111 456.84000000,266.22222222 458.07000000,266.83333333 459.30000000,267.44444444 460.53000000,268.05555556 461.76000000,268.66666667 462.99000000,269.27777778 464.22000000,269.88888889 465.45000000,270.50000000 466.68000000,271.11111111 467.91000000,271.72222222 469.14000000,272.33333333 470.37000000,272.94444444 471.60000000,273.55555556 472.83000000,274.16666667 474.06000000,274.77777778 475.29000000,275.38888889 476.52000000,276.00000000 477.75000000,276.61111111 478.98000000,277.22222222 480.21000000,277.83333333 481.44000000,278.44444444 482.67000000,279.05555556 483.90000000,279.66666667 485.13000000,280.27777778 486.36000000,280.88888889 487.59000000,281.50000000 488.82000000,282.11111111 490.05000000,282.72222222 491.28000000,283.33333333 492.51000000,283.94444444 493.74000000,284.55555556 494.97000000,285.16666667 496.20000000,285.77777778 497.43000000,286.38888889 498.66000000,287.00000000 499.89000000,287.61111111 501.12000000,288.22222222 502.35000000,288.83333333 503.58000000,289.44444444 504.81000000,290.05555556 506.04000000,290.66666667 507.27000000,291.27777778 508.50000000,291.88888889 509.73000000,292.50000000 510.96000000,293.11111111 512.19000000,293.72222222 513.42000000,294.33333333 514.65000000,294.94444444 515.88000000,295.55555556 517.11000000,296.16666667 518.34000000,296.77777778 519.57000000,297.38888889 520.80000000,298.00000000 522.03000000,298.61111111 523.26000000,299.22222222 524.49000000,299.83333333 525.72000000,300.44444444 526.95000000,301.05555556 528.18000000,301.66666667 529.41000000,302.27777778 530.64000000,302.88888889 531.87000000,303.50000000 533.10000000,304.11111111 534.33000000,304.72222222 535.56000000,305.33333333 536.79000000,305.94444444 538.02000000,306.55555556 539.25000000,307.16666667 540.48000000,307.77777778 541.71000000,308.38888889 542.94000000,309.00000000 544.17000000,309.61111111 545.40000000,310.22222222 546.63000000,310.83333333 547.86000000,311.44444444 549.09000000,312.05555556 550.32000000,312.66666667 551.55000000,313.27777778 552.78000000,313.88888889 554.01000000,314.50000000 555.24000000,315.11111111 556.47000000,315.72222222 557.70000000,316.33333333 558.93000000,316.94444444 560.16000000,317.55555556 561.39000000,318.16666667 562.62000000,318.77777778 563.85000000,319.38888889 565.08000000,320.00000000 566.31000000,320.61111111 567.54000000,321.22222222 568.77000000,321.83333333 570.00000000,322.44444444 571.23000000,323.05555556 572.46000000,323.66666667 573.69000000,324.27777778 574.92000000,324.88888889 576.15000000,325.50000000 577.38000000,326.11111111 578.61000000,326.72222222 579.84000000,327.33333333 581.07000000,327.94444444 582.30000000,328.55555556 583.53000000,329.16666667 584.76000000,329.77777778 585.99000000,330.38888889 587.22000000,331.00000000 588.45000000,331.61111111 589.68000000,332.22222222 590.91000000,332.83333333 592.14000000,333.44444444 593.37000000,334.05555556 594.60000000,334.66666667 595.83000000,335.27777778 597.06000000,335.88888889 598.29000000,336.50000000 599.52000000,337.11111111 600.75000000,337.72222222 601.98000000,338.33333333 603.21000000,338.94444444 604.44000000,339.55555556 605.67000000,340.16666667 606.90000000,340.77777778 608.13000000,341.38888889 609.36000000,342.00000000 610.59000000,342.61111111 611.82000000,343.22222222 613.05000000,343.83333333 614.28000000,344.44444444 615.51000000,345.05555556 616.74000000,345.66666667 617.97000000,346.27777778 619.20000000,346.88888889 620.43000000,347.50000000 621.66000000,348.11111111 622.89000000,348.72222222 624.12000000,349.33333333 625.35000000,349.94444444 626.58000000,350.55555556 627.81000000,351.16666667 629.04000000,351.77777778 630.27000000,352.38888889 631.50000000,353.00000000 632.73000000,353.61111111 633.96000000,354.22222222 635.19000000,354.83333333 636.42000000,355.44444444 637.65000000,356.05555556 638.88000000,356.66666667 640.11000000,357.27777778 641.34000000,357.88888889 642.57000000,358.50000000 643.80000000,359.11111111 645.03000000,359.72222222 646.26000000,360.33333333 647.49000000,360.94444444 648.72000000,361.55555556 649.95000000,362.16666667 651.18000000,362.77777778 652.41000000,363.38888889 653.64000000,364.00000000 654.87000000,364.61111111 656.10000000,365.22222222 657.33000000,365.83333333 658.56000000,366.44444444 659.79000000,367.05555556 661.02000000,367.66666667 662.25000000,368.27777778 663.48000000,368.88888889 664.71000000,369.50000000 665.94000000,370.11111111 667.17000000,370.72222222 668.40000000,371.33333333 669.63000000,371.94444444 670.86000000,372.55555556 672.09000000,373.16666667 673.32000000,373.77777778 674.55000000,374.38888889 675.78000000,375.00000000 677.01000000,375.61111111 678.24000000,376.22222222 679.47000000,376.83333333 680.70000000,377.44444444 681.93000000,378.05555556 683.16000000,378.66666667 684.39000000,379.27777778 685.62000000,379.88888889 686.85000000,380.50000000 688.08000000,381.11111111 689.31000000,381.72222222 690.54000000,382.33333333 691.77000000,382.94444444 693.00000000,383.55555556 694.23000000,384.16666667 695.46000000,384.77777778 696.69000000,385.38888889 697.92000000,386.00000000 699.15000000,386.61111111 700.38000000,387.22222222 701.61000000,387.83333333 702.84000000,388.44444444 704.07000000,389.05555556 705.30000000,389.66666667 706.53000000,390.27777778 707.76000000,390.88888889 708.99000000,391.50000000 710.22000000,392.11111111 711.45000000,392.72222222 712.68000000,393.33333333 713.91000000,393.94444444 715.14000000,394.55555556 716.37000000,395.16666667 717.60000000,395.77777778 718.83000000,396.38888889 720.06000000,397.00000000 721.29000000,397.61111111 722.52000000,398.22222222 723.75000000,398.83333333 724.98000000,399.44444444 726.21000000,400.05555556 727.44000000,400.66666667 728.67000000,401.27777778 729.90000000,401.88888889 731.13000000,402.50000000 732.36000000,403.11111111 733.59000000,403.72222222 734.82000000,404.33333333 736.05000000,404.94444444 737.28000000,405.55555556 738.51000000,406.16666667 739.74000000,406.77777778 740.97000000,407.38888889 742.20000000,408.00000000 743.43000000,408.61111111 744.66000000,409.22222222 745.89000000,409.83333333 747.12000000,410.44444444 748.35000000,411.05555556 749.58000000,411.66666667 750.81000000,412.27777778 752.04000000,412.88888889 753.27000000,413.50000000 754.50000000,414.11111111 755.73000000,414.72222222 756.96000000,415.33333333 758.19000000,415.94444444 759.42000000,416.55555556 760.65000000,417.16666667 761.88000000,417.77777778 763.11000000,418.38888889 764.34000000,419.00000000 765.57000000,419.61111111 766.80000000,420.22222222 768.03000000,420.83333333 769.26000000,421.44444444 770.49000000,422.05555556 771.72000000,422.66666667 772.95000000,423.27777778 774.18000000,423.88888889 775.41000000,424.50000000 776.64000000,425.11111111 777.87000000,425.72222222 779.10000000,426.33333333 780.33000000,426.94444444 781.56000000,427.55555556 782.79000000,428.16666667 784.02000000,428.77777778 785.25000000,429.38888889 786.48000000,430.00000000 787.71000000,430.61111111 788.94000000,431.22222222 790.17000000,431.83333333 791.40000000,432.44444444 792.63000000,433.05555556 793.86000000,433.66666667 795.09000000,434.27777778 796.32000000,434.88888889 797.55000000,435.50000000 798.78000000,436.11111111 800.01000000,436.72222222 801.24000000,437.33333333 802.47000000,437.94444444 803.70000000,438.55555556 804.93000000,439.16666667 806.16000000,439.77777778 807.39000000,440.38888889 808.62000000,441.00000000 809.85000000,441.61111111 811.08000000,442.22222222 812.31000000,442.83333333 813.54000000,443.44444444 814.77000000,444.05555556 816.00000000,444.66666667" fill="none" stroke="#247d70" stroke-width="3" clip-path="url(#p0)" stroke-dasharray="8 5"/>
<text x="321.5400" y="222.0000" font-family="Lato,DejaVu Sans,sans-serif" font-size="18" font-weight="700" text-anchor="start" fill="#247d70">MO</text>
<polyline data-panel="p0" data-curve="MK" points="78.00000000,298.00000000 79.23000000,298.00000000 80.46000000,298.00000000 81.69000000,298.00000000 82.92000000,298.00000000 84.15000000,298.00000000 85.38000000,298.00000000 86.61000000,298.00000000 87.84000000,298.00000000 89.07000000,298.00000000 90.30000000,298.00000000 91.53000000,298.00000000 92.76000000,298.00000000 93.99000000,298.00000000 95.22000000,298.00000000 96.45000000,298.00000000 97.68000000,298.00000000 98.91000000,298.00000000 100.14000000,298.00000000 101.37000000,298.00000000 102.60000000,298.00000000 103.83000000,298.00000000 105.06000000,298.00000000 106.29000000,298.00000000 107.52000000,298.00000000 108.75000000,298.00000000 109.98000000,298.00000000 111.21000000,298.00000000 112.44000000,298.00000000 113.67000000,298.00000000 114.90000000,298.00000000 116.13000000,298.00000000 117.36000000,298.00000000 118.59000000,298.00000000 119.82000000,298.00000000 121.05000000,298.00000000 122.28000000,298.00000000 123.51000000,298.00000000 124.74000000,298.00000000 125.97000000,298.00000000 127.20000000,298.00000000 128.43000000,298.00000000 129.66000000,298.00000000 130.89000000,298.00000000 132.12000000,298.00000000 133.35000000,298.00000000 134.58000000,298.00000000 135.81000000,298.00000000 137.04000000,298.00000000 138.27000000,298.00000000 139.50000000,298.00000000 140.73000000,298.00000000 141.96000000,298.00000000 143.19000000,298.00000000 144.42000000,298.00000000 145.65000000,298.00000000 146.88000000,298.00000000 148.11000000,298.00000000 149.34000000,298.00000000 150.57000000,298.00000000 151.80000000,298.00000000 153.03000000,298.00000000 154.26000000,298.00000000 155.49000000,298.00000000 156.72000000,298.00000000 157.95000000,298.00000000 159.18000000,298.00000000 160.41000000,298.00000000 161.64000000,298.00000000 162.87000000,298.00000000 164.10000000,298.00000000 165.33000000,298.00000000 166.56000000,298.00000000 167.79000000,298.00000000 169.02000000,298.00000000 170.25000000,298.00000000 171.48000000,298.00000000 172.71000000,298.00000000 173.94000000,298.00000000 175.17000000,298.00000000 176.40000000,298.00000000 177.63000000,298.00000000 178.86000000,298.00000000 180.09000000,298.00000000 181.32000000,298.00000000 182.55000000,298.00000000 183.78000000,298.00000000 185.01000000,298.00000000 186.24000000,298.00000000 187.47000000,298.00000000 188.70000000,298.00000000 189.93000000,298.00000000 191.16000000,298.00000000 192.39000000,298.00000000 193.62000000,298.00000000 194.85000000,298.00000000 196.08000000,298.00000000 197.31000000,298.00000000 198.54000000,298.00000000 199.77000000,298.00000000 201.00000000,298.00000000 202.23000000,298.00000000 203.46000000,298.00000000 204.69000000,298.00000000 205.92000000,298.00000000 207.15000000,298.00000000 208.38000000,298.00000000 209.61000000,298.00000000 210.84000000,298.00000000 212.07000000,298.00000000 213.30000000,298.00000000 214.53000000,298.00000000 215.76000000,298.00000000 216.99000000,298.00000000 218.22000000,298.00000000 219.45000000,298.00000000 220.68000000,298.00000000 221.91000000,298.00000000 223.14000000,298.00000000 224.37000000,298.00000000 225.60000000,298.00000000 226.83000000,298.00000000 228.06000000,298.00000000 229.29000000,298.00000000 230.52000000,298.00000000 231.75000000,298.00000000 232.98000000,298.00000000 234.21000000,298.00000000 235.44000000,298.00000000 236.67000000,298.00000000 237.90000000,298.00000000 239.13000000,298.00000000 240.36000000,298.00000000 241.59000000,298.00000000 242.82000000,298.00000000 244.05000000,298.00000000 245.28000000,298.00000000 246.51000000,298.00000000 247.74000000,298.00000000 248.97000000,298.00000000 250.20000000,298.00000000 251.43000000,298.00000000 252.66000000,298.00000000 253.89000000,298.00000000 255.12000000,298.00000000 256.35000000,298.00000000 257.58000000,298.00000000 258.81000000,298.00000000 260.04000000,298.00000000 261.27000000,298.00000000 262.50000000,298.00000000 263.73000000,298.00000000 264.96000000,298.00000000 266.19000000,298.00000000 267.42000000,298.00000000 268.65000000,298.00000000 269.88000000,298.00000000 271.11000000,298.00000000 272.34000000,298.00000000 273.57000000,298.00000000 274.80000000,298.00000000 276.03000000,298.00000000 277.26000000,298.00000000 278.49000000,298.00000000 279.72000000,298.00000000 280.95000000,298.00000000 282.18000000,298.00000000 283.41000000,298.00000000 284.64000000,298.00000000 285.87000000,298.00000000 287.10000000,298.00000000 288.33000000,298.00000000 289.56000000,298.00000000 290.79000000,298.00000000 292.02000000,298.00000000 293.25000000,298.00000000 294.48000000,298.00000000 295.71000000,298.00000000 296.94000000,298.00000000 298.17000000,298.00000000 299.40000000,298.00000000 300.63000000,298.00000000 301.86000000,298.00000000 303.09000000,298.00000000 304.32000000,298.00000000 305.55000000,298.00000000 306.78000000,298.00000000 308.01000000,298.00000000 309.24000000,298.00000000 310.47000000,298.00000000 311.70000000,298.00000000 312.93000000,298.00000000 314.16000000,298.00000000 315.39000000,298.00000000 316.62000000,298.00000000 317.85000000,298.00000000 319.08000000,298.00000000 320.31000000,298.00000000 321.54000000,298.00000000 322.77000000,298.00000000 324.00000000,298.00000000 325.23000000,298.00000000 326.46000000,298.00000000 327.69000000,298.00000000 328.92000000,298.00000000 330.15000000,298.00000000 331.38000000,298.00000000 332.61000000,298.00000000 333.84000000,298.00000000 335.07000000,298.00000000 336.30000000,298.00000000 337.53000000,298.00000000 338.76000000,298.00000000 339.99000000,298.00000000 341.22000000,298.00000000 342.45000000,298.00000000 343.68000000,298.00000000 344.91000000,298.00000000 346.14000000,298.00000000 347.37000000,298.00000000 348.60000000,298.00000000 349.83000000,298.00000000 351.06000000,298.00000000 352.29000000,298.00000000 353.52000000,298.00000000 354.75000000,298.00000000 355.98000000,298.00000000 357.21000000,298.00000000 358.44000000,298.00000000 359.67000000,298.00000000 360.90000000,298.00000000 362.13000000,298.00000000 363.36000000,298.00000000 364.59000000,298.00000000 365.82000000,298.00000000 367.05000000,298.00000000 368.28000000,298.00000000 369.51000000,298.00000000 370.74000000,298.00000000 371.97000000,298.00000000 373.20000000,298.00000000 374.43000000,298.00000000 375.66000000,298.00000000 376.89000000,298.00000000 378.12000000,298.00000000 379.35000000,298.00000000 380.58000000,298.00000000 381.81000000,298.00000000 383.04000000,298.00000000 384.27000000,298.00000000 385.50000000,298.00000000 386.73000000,298.00000000 387.96000000,298.00000000 389.19000000,298.00000000 390.42000000,298.00000000 391.65000000,298.00000000 392.88000000,298.00000000 394.11000000,298.00000000 395.34000000,298.00000000 396.57000000,298.00000000 397.80000000,298.00000000 399.03000000,298.00000000 400.26000000,298.00000000 401.49000000,298.00000000 402.72000000,298.00000000 403.95000000,298.00000000 405.18000000,298.00000000 406.41000000,298.00000000 407.64000000,298.00000000 408.87000000,298.00000000 410.10000000,298.00000000 411.33000000,298.00000000 412.56000000,298.00000000 413.79000000,298.00000000 415.02000000,298.00000000 416.25000000,298.00000000 417.48000000,298.00000000 418.71000000,298.00000000 419.94000000,298.00000000 421.17000000,298.00000000 422.40000000,298.00000000 423.63000000,298.00000000 424.86000000,298.00000000 426.09000000,298.00000000 427.32000000,298.00000000 428.55000000,298.00000000 429.78000000,298.00000000 431.01000000,298.00000000 432.24000000,298.00000000 433.47000000,298.00000000 434.70000000,298.00000000 435.93000000,298.00000000 437.16000000,298.00000000 438.39000000,298.00000000 439.62000000,298.00000000 440.85000000,298.00000000 442.08000000,298.00000000 443.31000000,298.00000000 444.54000000,298.00000000 445.77000000,298.00000000 447.00000000,298.00000000 448.23000000,298.00000000 449.46000000,298.00000000 450.69000000,298.00000000 451.92000000,298.00000000 453.15000000,298.00000000 454.38000000,298.00000000 455.61000000,298.00000000 456.84000000,298.00000000 458.07000000,298.00000000 459.30000000,298.00000000 460.53000000,298.00000000 461.76000000,298.00000000 462.99000000,298.00000000 464.22000000,298.00000000 465.45000000,298.00000000 466.68000000,298.00000000 467.91000000,298.00000000 469.14000000,298.00000000 470.37000000,298.00000000 471.60000000,298.00000000 472.83000000,298.00000000 474.06000000,298.00000000 475.29000000,298.00000000 476.52000000,298.00000000 477.75000000,298.00000000 478.98000000,298.00000000 480.21000000,298.00000000 481.44000000,298.00000000 482.67000000,298.00000000 483.90000000,298.00000000 485.13000000,298.00000000 486.36000000,298.00000000 487.59000000,298.00000000 488.82000000,298.00000000 490.05000000,298.00000000 491.28000000,298.00000000 492.51000000,298.00000000 493.74000000,298.00000000 494.97000000,298.00000000 496.20000000,298.00000000 497.43000000,298.00000000 498.66000000,298.00000000 499.89000000,298.00000000 501.12000000,298.00000000 502.35000000,298.00000000 503.58000000,298.00000000 504.81000000,298.00000000 506.04000000,298.00000000 507.27000000,298.00000000 508.50000000,298.00000000 509.73000000,298.00000000 510.96000000,298.00000000 512.19000000,298.00000000 513.42000000,298.00000000 514.65000000,298.00000000 515.88000000,298.00000000 517.11000000,298.00000000 518.34000000,298.00000000 519.57000000,298.00000000 520.80000000,298.00000000 522.03000000,298.00000000 523.26000000,298.00000000 524.49000000,298.00000000 525.72000000,298.00000000 526.95000000,298.00000000 528.18000000,298.00000000 529.41000000,298.00000000 530.64000000,298.00000000 531.87000000,298.00000000 533.10000000,298.00000000 534.33000000,298.00000000 535.56000000,298.00000000 536.79000000,298.00000000 538.02000000,298.00000000 539.25000000,298.00000000 540.48000000,298.00000000 541.71000000,298.00000000 542.94000000,298.00000000 544.17000000,298.00000000 545.40000000,298.00000000 546.63000000,298.00000000 547.86000000,298.00000000 549.09000000,298.00000000 550.32000000,298.00000000 551.55000000,298.00000000 552.78000000,298.00000000 554.01000000,298.00000000 555.24000000,298.00000000 556.47000000,298.00000000 557.70000000,298.00000000 558.93000000,298.00000000 560.16000000,298.00000000 561.39000000,298.00000000 562.62000000,298.00000000 563.85000000,298.00000000 565.08000000,298.00000000 566.31000000,298.00000000 567.54000000,298.00000000 568.77000000,298.00000000 570.00000000,298.00000000 571.23000000,298.00000000 572.46000000,298.00000000 573.69000000,298.00000000 574.92000000,298.00000000 576.15000000,298.00000000 577.38000000,298.00000000 578.61000000,298.00000000 579.84000000,298.00000000 581.07000000,298.00000000 582.30000000,298.00000000 583.53000000,298.00000000 584.76000000,298.00000000 585.99000000,298.00000000 587.22000000,298.00000000 588.45000000,298.00000000 589.68000000,298.00000000 590.91000000,298.00000000 592.14000000,298.00000000 593.37000000,298.00000000 594.60000000,298.00000000 595.83000000,298.00000000 597.06000000,298.00000000 598.29000000,298.00000000 599.52000000,298.00000000 600.75000000,298.00000000 601.98000000,298.00000000 603.21000000,298.00000000 604.44000000,298.00000000 605.67000000,298.00000000 606.90000000,298.00000000 608.13000000,298.00000000 609.36000000,298.00000000 610.59000000,298.00000000 611.82000000,298.00000000 613.05000000,298.00000000 614.28000000,298.00000000 615.51000000,298.00000000 616.74000000,298.00000000 617.97000000,298.00000000 619.20000000,298.00000000 620.43000000,298.00000000 621.66000000,298.00000000 622.89000000,298.00000000 624.12000000,298.00000000 625.35000000,298.00000000 626.58000000,298.00000000 627.81000000,298.00000000 629.04000000,298.00000000 630.27000000,298.00000000 631.50000000,298.00000000 632.73000000,298.00000000 633.96000000,298.00000000 635.19000000,298.00000000 636.42000000,298.00000000 637.65000000,298.00000000 638.88000000,298.00000000 640.11000000,298.00000000 641.34000000,298.00000000 642.57000000,298.00000000 643.80000000,298.00000000 645.03000000,298.00000000 646.26000000,298.00000000 647.49000000,298.00000000 648.72000000,298.00000000 649.95000000,298.00000000 651.18000000,298.00000000 652.41000000,298.00000000 653.64000000,298.00000000 654.87000000,298.00000000 656.10000000,298.00000000 657.33000000,298.00000000 658.56000000,298.00000000 659.79000000,298.00000000 661.02000000,298.00000000 662.25000000,298.00000000 663.48000000,298.00000000 664.71000000,298.00000000 665.94000000,298.00000000 667.17000000,298.00000000 668.40000000,298.00000000 669.63000000,298.00000000 670.86000000,298.00000000 672.09000000,298.00000000 673.32000000,298.00000000 674.55000000,298.00000000 675.78000000,298.00000000 677.01000000,298.00000000 678.24000000,298.00000000 679.47000000,298.00000000 680.70000000,298.00000000 681.93000000,298.00000000 683.16000000,298.00000000 684.39000000,298.00000000 685.62000000,298.00000000 686.85000000,298.00000000 688.08000000,298.00000000 689.31000000,298.00000000 690.54000000,298.00000000 691.77000000,298.00000000 693.00000000,298.00000000 694.23000000,298.00000000 695.46000000,298.00000000 696.69000000,298.00000000 697.92000000,298.00000000 699.15000000,298.00000000 700.38000000,298.00000000 701.61000000,298.00000000 702.84000000,298.00000000 704.07000000,298.00000000 705.30000000,298.00000000 706.53000000,298.00000000 707.76000000,298.00000000 708.99000000,298.00000000 710.22000000,298.00000000 711.45000000,298.00000000 712.68000000,298.00000000 713.91000000,298.00000000 715.14000000,298.00000000 716.37000000,298.00000000 717.60000000,298.00000000 718.83000000,298.00000000 720.06000000,298.00000000 721.29000000,298.00000000 722.52000000,298.00000000 723.75000000,298.00000000 724.98000000,298.00000000 726.21000000,298.00000000 727.44000000,298.00000000 728.67000000,298.00000000 729.90000000,298.00000000 731.13000000,298.00000000 732.36000000,298.00000000 733.59000000,298.00000000 734.82000000,298.00000000 736.05000000,298.00000000 737.28000000,298.00000000 738.51000000,298.00000000 739.74000000,298.00000000 740.97000000,298.00000000 742.20000000,298.00000000 743.43000000,298.00000000 744.66000000,298.00000000 745.89000000,298.00000000 747.12000000,298.00000000 748.35000000,298.00000000 749.58000000,298.00000000 750.81000000,298.00000000 752.04000000,298.00000000 753.27000000,298.00000000 754.50000000,298.00000000 755.73000000,298.00000000 756.96000000,298.00000000 758.19000000,298.00000000 759.42000000,298.00000000 760.65000000,298.00000000 761.88000000,298.00000000 763.11000000,298.00000000 764.34000000,298.00000000 765.57000000,298.00000000 766.80000000,298.00000000 768.03000000,298.00000000 769.26000000,298.00000000 770.49000000,298.00000000 771.72000000,298.00000000 772.95000000,298.00000000 774.18000000,298.00000000 775.41000000,298.00000000 776.64000000,298.00000000 777.87000000,298.00000000 779.10000000,298.00000000 780.33000000,298.00000000 781.56000000,298.00000000 782.79000000,298.00000000 784.02000000,298.00000000 785.25000000,298.00000000 786.48000000,298.00000000 787.71000000,298.00000000 788.94000000,298.00000000 790.17000000,298.00000000 791.40000000,298.00000000 792.63000000,298.00000000 793.86000000,298.00000000 795.09000000,298.00000000 796.32000000,298.00000000 797.55000000,298.00000000 798.78000000,298.00000000 800.01000000,298.00000000 801.24000000,298.00000000 802.47000000,298.00000000 803.70000000,298.00000000 804.93000000,298.00000000 806.16000000,298.00000000 807.39000000,298.00000000 808.62000000,298.00000000 809.85000000,298.00000000 811.08000000,298.00000000 812.31000000,298.00000000 813.54000000,298.00000000 814.77000000,298.00000000 816.00000000,298.00000000" fill="none" stroke="#aa4e42" stroke-width="3" clip-path="url(#p0)"/>
<text x="653.6400" y="322.0000" font-family="Lato,DejaVu Sans,sans-serif" font-size="18" font-weight="700" text-anchor="start" fill="#aa4e42">MK</text>
<line x1="78.0000" y1="261.3333" x2="447.0000" y2="261.3333" stroke="#657986" stroke-width="1.1" stroke-dasharray="5 4"/>
<line x1="447.0000" y1="353.0000" x2="447.0000" y2="261.3333" stroke="#657986" stroke-width="1.1" stroke-dasharray="5 4"/>
<circle data-point="1" data-panel="p0" cx="447.0000" cy="261.3333" r="4.2" fill="#183247"/>
<text x="427.0000" y="283.3333" font-family="Lato,DejaVu Sans,sans-serif" font-size="18" font-weight="700" text-anchor="start" fill="#183247">1</text>
<line x1="78.0000" y1="169.6667" x2="447.0000" y2="169.6667" stroke="#657986" stroke-width="1.1" stroke-dasharray="5 4"/>
<line x1="447.0000" y1="353.0000" x2="447.0000" y2="169.6667" stroke="#657986" stroke-width="1.1" stroke-dasharray="5 4"/>
<circle data-point="2" data-panel="p0" cx="447.0000" cy="169.6667" r="4.2" fill="#183247"/>
<text x="455.0000" y="157.6667" font-family="Lato,DejaVu Sans,sans-serif" font-size="18" font-weight="700" text-anchor="start" fill="#183247">2</text>
<line x1="447.0000" y1="78.0000" x2="447.0000" y2="353.0000" stroke="#657986" stroke-width="1.5" stroke-dasharray="4 4"/>
<text x="440.0000" y="101.0000" font-family="Lato,DejaVu Sans,sans-serif" font-size="17" font-weight="400" text-anchor="end" fill="#657986">capaciteit</text>
<text x="450.0000" y="426.0000" font-family="Lato,DejaVu Sans,sans-serif" font-size="17" font-weight="400" text-anchor="middle" fill="#183247">Bij een capaciteit van 50 kg blijft MO &gt; MK tot de grens. Kies dan q = 50.</text>
</svg>