<svg xmlns="http://www.w3.org/2000/svg" width="900" height="425" viewBox="0 0 900 425" role="img"><title>Doeloefening 18 · Prijs en hoeveelheid</title>
<defs><marker id="arrow" viewBox="0 0 10 10" refX="8" refY="5" markerWidth="5" markerHeight="5" orient="auto-start-reverse"><path d="M0,0 L10,5 L0,10" fill="none" stroke="#536777" stroke-width="1.5"/></marker><pattern id="hatch" width="9" height="9" patternUnits="userSpaceOnUse"><path d="M-2,2 L2,-2 M0,9 L9,0 M7,11 L11,7" stroke="#183247" stroke-opacity=".22" stroke-width="1"/></pattern></defs>
<rect width="900" height="425" rx="8" fill="#f5f8fa"/>
<text x="447.0000" y="27.0000" font-family="Lato,DejaVu Sans,sans-serif" font-size="21" font-weight="700" text-anchor="middle" fill="#183247">Doeloefening 18 · Prijs en hoeveelheid</text>
<text x="78.0000" y="54.0000" font-family="Lato,DejaVu Sans,sans-serif" font-size="17" font-weight="400" text-anchor="start" fill="#183247">P (€ per kaartje)</text>
<defs><clipPath id="p0"><rect x="78" y="78" width="738" height="265"/></clipPath></defs>
<line x1="78.0000" y1="78.0000" x2="78.0000" y2="343.0000" stroke="#dbe4e9" stroke-width="0.7"/>
<text x="78.0000" y="368.0000" font-family="Lato,DejaVu Sans,sans-serif" font-size="17" font-weight="400" text-anchor="middle" fill="#183247">0</text>
<line x1="262.5000" y1="78.0000" x2="262.5000" y2="343.0000" stroke="#dbe4e9" stroke-width="0.7"/>
<text x="262.5000" y="368.0000" font-family="Lato,DejaVu Sans,sans-serif" font-size="17" font-weight="400" text-anchor="middle" fill="#183247">60</text>
<line x1="447.0000" y1="78.0000" x2="447.0000" y2="343.0000" stroke="#dbe4e9" stroke-width="0.7"/>
<text x="447.0000" y="368.0000" font-family="Lato,DejaVu Sans,sans-serif" font-size="17" font-weight="400" text-anchor="middle" fill="#183247">120</text>
<line x1="631.5000" y1="78.0000" x2="631.5000" y2="343.0000" stroke="#dbe4e9" stroke-width="0.7"/>
<text x="631.5000" y="368.0000" font-family="Lato,DejaVu Sans,sans-serif" font-size="17" font-weight="400" text-anchor="middle" fill="#183247">180</text>
<line x1="816.0000" y1="78.0000" x2="816.0000" y2="343.0000" stroke="#dbe4e9" stroke-width="0.7"/>
<text x="816.0000" y="368.0000" font-family="Lato,DejaVu Sans,sans-serif" font-size="17" font-weight="400" text-anchor="middle" fill="#183247">240</text>
<line x1="78.0000" y1="343.0000" x2="816.0000" y2="343.0000" stroke="#dbe4e9" stroke-width="0.7"/>
<text x="67.0000" y="348.0000" font-family="Lato,DejaVu Sans,sans-serif" font-size="17" font-weight="400" text-anchor="end" fill="#183247">0</text>
<line x1="78.0000" y1="276.7500" x2="816.0000" y2="276.7500" stroke="#dbe4e9" stroke-width="0.7"/>
<text x="67.0000" y="281.7500" font-family="Lato,DejaVu Sans,sans-serif" font-size="17" font-weight="400" text-anchor="end" fill="#183247">6</text>
<line x1="78.0000" y1="210.5000" x2="816.0000" y2="210.5000" stroke="#dbe4e9" stroke-width="0.7"/>
<text x="67.0000" y="215.5000" font-family="Lato,DejaVu Sans,sans-serif" font-size="17" font-weight="400" text-anchor="end" fill="#183247">12</text>
<line x1="78.0000" y1="144.2500" x2="816.0000" y2="144.2500" stroke="#dbe4e9" stroke-width="0.7"/>
<text x="67.0000" y="149.2500" font-family="Lato,DejaVu Sans,sans-serif" font-size="17" font-weight="400" text-anchor="end" fill="#183247">18</text>
<line x1="78.0000" y1="78.0000" x2="816.0000" y2="78.0000" stroke="#dbe4e9" stroke-width="0.7"/>
<text x="67.0000" y="83.0000" font-family="Lato,DejaVu Sans,sans-serif" font-size="17" font-weight="400" text-anchor="end" fill="#183247">24</text>
<line x1="78.0000" y1="343.0000" x2="823.0000" y2="343.0000" stroke="#183247" stroke-width="1.7" marker-end="url(#arrow)"/>
<line x1="78.0000" y1="343.0000" x2="78.0000" y2="73.0000" stroke="#183247" stroke-width="1.7" marker-end="url(#arrow)"/>
<text x="447.0000" y="395.0000" font-family="Lato,DejaVu Sans,sans-serif" font-size="18" font-weight="400" text-anchor="middle" fill="#183247">q (kaartjes per dag)</text>
<polyline data-panel="p0" data-curve="Vraag = GO" points="78.00000000,78.00000000 79.23000000,78.44166667 80.46000000,78.88333333 81.69000000,79.32500000 82.92000000,79.76666667 84.15000000,80.20833333 85.38000000,80.65000000 86.61000000,81.09166667 87.84000000,81.53333333 89.07000000,81.97500000 90.30000000,82.41666667 91.53000000,82.85833333 92.76000000,83.30000000 93.99000000,83.74166667 95.22000000,84.18333333 96.45000000,84.62500000 97.68000000,85.06666667 98.91000000,85.50833333 100.14000000,85.95000000 101.37000000,86.39166667 102.60000000,86.83333333 103.83000000,87.27500000 105.06000000,87.71666667 106.29000000,88.15833333 107.52000000,88.60000000 108.75000000,89.04166667 109.98000000,89.48333333 111.21000000,89.92500000 112.44000000,90.36666667 113.67000000,90.80833333 114.90000000,91.25000000 116.13000000,91.69166667 117.36000000,92.13333333 118.59000000,92.57500000 119.82000000,93.01666667 121.05000000,93.45833333 122.28000000,93.90000000 123.51000000,94.34166667 124.74000000,94.78333333 125.97000000,95.22500000 127.20000000,95.66666667 128.43000000,96.10833333 129.66000000,96.55000000 130.89000000,96.99166667 132.12000000,97.43333333 133.35000000,97.87500000 134.58000000,98.31666667 135.81000000,98.75833333 137.04000000,99.20000000 138.27000000,99.64166667 139.50000000,100.08333333 140.73000000,100.52500000 141.96000000,100.96666667 143.19000000,101.40833333 144.42000000,101.85000000 145.65000000,102.29166667 146.88000000,102.73333333 148.11000000,103.17500000 149.34000000,103.61666667 150.57000000,104.05833333 151.80000000,104.50000000 153.03000000,104.94166667 154.26000000,105.38333333 155.49000000,105.82500000 156.72000000,106.26666667 157.95000000,106.70833333 159.18000000,107.15000000 160.41000000,107.59166667 161.64000000,108.03333333 162.87000000,108.47500000 164.10000000,108.91666667 165.33000000,109.35833333 166.56000000,109.80000000 167.79000000,110.24166667 169.02000000,110.68333333 170.25000000,111.12500000 171.48000000,111.56666667 172.71000000,112.00833333 173.94000000,112.45000000 175.17000000,112.89166667 176.40000000,113.33333333 177.63000000,113.77500000 178.86000000,114.21666667 180.09000000,114.65833333 181.32000000,115.10000000 182.55000000,115.54166667 183.78000000,115.98333333 185.01000000,116.42500000 186.24000000,116.86666667 187.47000000,117.30833333 188.70000000,117.75000000 189.93000000,118.19166667 191.16000000,118.63333333 192.39000000,119.07500000 193.62000000,119.51666667 194.85000000,119.95833333 196.08000000,120.40000000 197.31000000,120.84166667 198.54000000,121.28333333 199.77000000,121.72500000 201.00000000,122.16666667 202.23000000,122.60833333 203.46000000,123.05000000 204.69000000,123.49166667 205.92000000,123.93333333 207.15000000,124.37500000 208.38000000,124.81666667 209.61000000,125.25833333 210.84000000,125.70000000 212.07000000,126.14166667 213.30000000,126.58333333 214.53000000,127.02500000 215.76000000,127.46666667 216.99000000,127.90833333 218.22000000,128.35000000 219.45000000,128.79166667 220.68000000,129.23333333 221.91000000,129.67500000 223.14000000,130.11666667 224.37000000,130.55833333 225.60000000,131.00000000 226.83000000,131.44166667 228.06000000,131.88333333 229.29000000,132.32500000 230.52000000,132.76666667 231.75000000,133.20833333 232.98000000,133.65000000 234.21000000,134.09166667 235.44000000,134.53333333 236.67000000,134.97500000 237.90000000,135.41666667 239.13000000,135.85833333 240.36000000,136.30000000 241.59000000,136.74166667 242.82000000,137.18333333 244.05000000,137.62500000 245.28000000,138.06666667 246.51000000,138.50833333 247.74000000,138.95000000 248.97000000,139.39166667 250.20000000,139.83333333 251.43000000,140.27500000 252.66000000,140.71666667 253.89000000,141.15833333 255.12000000,141.60000000 256.35000000,142.04166667 257.58000000,142.48333333 258.81000000,142.92500000 260.04000000,143.36666667 261.27000000,143.80833333 262.50000000,144.25000000 263.73000000,144.69166667 264.96000000,145.13333333 266.19000000,145.57500000 267.42000000,146.01666667 268.65000000,146.45833333 269.88000000,146.90000000 271.11000000,147.34166667 272.34000000,147.78333333 273.57000000,148.22500000 274.80000000,148.66666667 276.03000000,149.10833333 277.26000000,149.55000000 278.49000000,149.99166667 279.72000000,150.43333333 280.95000000,150.87500000 282.18000000,151.31666667 283.41000000,151.75833333 284.64000000,152.20000000 285.87000000,152.64166667 287.10000000,153.08333333 288.33000000,153.52500000 289.56000000,153.96666667 290.79000000,154.40833333 292.02000000,154.85000000 293.25000000,155.29166667 294.48000000,155.73333333 295.71000000,156.17500000 296.94000000,156.61666667 298.17000000,157.05833333 299.40000000,157.50000000 300.63000000,157.94166667 301.86000000,158.38333333 303.09000000,158.82500000 304.32000000,159.26666667 305.55000000,159.70833333 306.78000000,160.15000000 308.01000000,160.59166667 309.24000000,161.03333333 310.47000000,161.47500000 311.70000000,161.91666667 312.93000000,162.35833333 314.16000000,162.80000000 315.39000000,163.24166667 316.62000000,163.68333333 317.85000000,164.12500000 319.08000000,164.56666667 320.31000000,165.00833333 321.54000000,165.45000000 322.77000000,165.89166667 324.00000000,166.33333333 325.23000000,166.77500000 326.46000000,167.21666667 327.69000000,167.65833333 328.92000000,168.10000000 330.15000000,168.54166667 331.38000000,168.98333333 332.61000000,169.42500000 333.84000000,169.86666667 335.07000000,170.30833333 336.30000000,170.75000000 337.53000000,171.19166667 338.76000000,171.63333333 339.99000000,172.07500000 341.22000000,172.51666667 342.45000000,172.95833333 343.68000000,173.40000000 344.91000000,173.84166667 346.14000000,174.28333333 347.37000000,174.72500000 348.60000000,175.16666667 349.83000000,175.60833333 351.06000000,176.05000000 352.29000000,176.49166667 353.52000000,176.93333333 354.75000000,177.37500000 355.98000000,177.81666667 357.21000000,178.25833333 358.44000000,178.70000000 359.67000000,179.14166667 360.90000000,179.58333333 362.13000000,180.02500000 363.36000000,180.46666667 364.59000000,180.90833333 365.82000000,181.35000000 367.05000000,181.79166667 368.28000000,182.23333333 369.51000000,182.67500000 370.74000000,183.11666667 371.97000000,183.55833333 373.20000000,184.00000000 374.43000000,184.44166667 375.66000000,184.88333333 376.89000000,185.32500000 378.12000000,185.76666667 379.35000000,186.20833333 380.58000000,186.65000000 381.81000000,187.09166667 383.04000000,187.53333333 384.27000000,187.97500000 385.50000000,188.41666667 386.73000000,188.85833333 387.96000000,189.30000000 389.19000000,189.74166667 390.42000000,190.18333333 391.65000000,190.62500000 392.88000000,191.06666667 394.11000000,191.50833333 395.34000000,191.95000000 396.57000000,192.39166667 397.80000000,192.83333333 399.03000000,193.27500000 400.26000000,193.71666667 401.49000000,194.15833333 402.72000000,194.60000000 403.95000000,195.04166667 405.18000000,195.48333333 406.41000000,195.92500000 407.64000000,196.36666667 408.87000000,196.80833333 410.10000000,197.25000000 411.33000000,197.69166667 412.56000000,198.13333333 413.79000000,198.57500000 415.02000000,199.01666667 416.25000000,199.45833333 417.48000000,199.90000000 418.71000000,200.34166667 419.94000000,200.78333333 421.17000000,201.22500000 422.40000000,201.66666667 423.63000000,202.10833333 424.86000000,202.55000000 426.09000000,202.99166667 427.32000000,203.43333333 428.55000000,203.87500000 429.78000000,204.31666667 431.01000000,204.75833333 432.24000000,205.20000000 433.47000000,205.64166667 434.70000000,206.08333333 435.93000000,206.52500000 437.16000000,206.96666667 438.39000000,207.40833333 439.62000000,207.85000000 440.85000000,208.29166667 442.08000000,208.73333333 443.31000000,209.17500000 444.54000000,209.61666667 445.77000000,210.05833333 447.00000000,210.50000000 448.23000000,210.94166667 449.46000000,211.38333333 450.69000000,211.82500000 451.92000000,212.26666667 453.15000000,212.70833333 454.38000000,213.15000000 455.61000000,213.59166667 456.84000000,214.03333333 458.07000000,214.47500000 459.30000000,214.91666667 460.53000000,215.35833333 461.76000000,215.80000000 462.99000000,216.24166667 464.22000000,216.68333333 465.45000000,217.12500000 466.68000000,217.56666667 467.91000000,218.00833333 469.14000000,218.45000000 470.37000000,218.89166667 471.60000000,219.33333333 472.83000000,219.77500000 474.06000000,220.21666667 475.29000000,220.65833333 476.52000000,221.10000000 477.75000000,221.54166667 478.98000000,221.98333333 480.21000000,222.42500000 481.44000000,222.86666667 482.67000000,223.30833333 483.90000000,223.75000000 485.13000000,224.19166667 486.36000000,224.63333333 487.59000000,225.07500000 488.82000000,225.51666667 490.05000000,225.95833333 491.28000000,226.40000000 492.51000000,226.84166667 493.74000000,227.28333333 494.97000000,227.72500000 496.20000000,228.16666667 497.43000000,228.60833333 498.66000000,229.05000000 499.89000000,229.49166667 501.12000000,229.93333333 502.35000000,230.37500000 503.58000000,230.81666667 504.81000000,231.25833333 506.04000000,231.70000000 507.27000000,232.14166667 508.50000000,232.58333333 509.73000000,233.02500000 510.96000000,233.46666667 512.19000000,233.90833333 513.42000000,234.35000000 514.65000000,234.79166667 515.88000000,235.23333333 517.11000000,235.67500000 518.34000000,236.11666667 519.57000000,236.55833333 520.80000000,237.00000000 522.03000000,237.44166667 523.26000000,237.88333333 524.49000000,238.32500000 525.72000000,238.76666667 526.95000000,239.20833333 528.18000000,239.65000000 529.41000000,240.09166667 530.64000000,240.53333333 531.87000000,240.97500000 533.10000000,241.41666667 534.33000000,241.85833333 535.56000000,242.30000000 536.79000000,242.74166667 538.02000000,243.18333333 539.25000000,243.62500000 540.48000000,244.06666667 541.71000000,244.50833333 542.94000000,244.95000000 544.17000000,245.39166667 545.40000000,245.83333333 546.63000000,246.27500000 547.86000000,246.71666667 549.09000000,247.15833333 550.32000000,247.60000000 551.55000000,248.04166667 552.78000000,248.48333333 554.01000000,248.92500000 555.24000000,249.36666667 556.47000000,249.80833333 557.70000000,250.25000000 558.93000000,250.69166667 560.16000000,251.13333333 561.39000000,251.57500000 562.62000000,252.01666667 563.85000000,252.45833333 565.08000000,252.90000000 566.31000000,253.34166667 567.54000000,253.78333333 568.77000000,254.22500000 570.00000000,254.66666667 571.23000000,255.10833333 572.46000000,255.55000000 573.69000000,255.99166667 574.92000000,256.43333333 576.15000000,256.87500000 577.38000000,257.31666667 578.61000000,257.75833333 579.84000000,258.20000000 581.07000000,258.64166667 582.30000000,259.08333333 583.53000000,259.52500000 584.76000000,259.96666667 585.99000000,260.40833333 587.22000000,260.85000000 588.45000000,261.29166667 589.68000000,261.73333333 590.91000000,262.17500000 592.14000000,262.61666667 593.37000000,263.05833333 594.60000000,263.50000000 595.83000000,263.94166667 597.06000000,264.38333333 598.29000000,264.82500000 599.52000000,265.26666667 600.75000000,265.70833333 601.98000000,266.15000000 603.21000000,266.59166667 604.44000000,267.03333333 605.67000000,267.47500000 606.90000000,267.91666667 608.13000000,268.35833333 609.36000000,268.80000000 610.59000000,269.24166667 611.82000000,269.68333333 613.05000000,270.12500000 614.28000000,270.56666667 615.51000000,271.00833333 616.74000000,271.45000000 617.97000000,271.89166667 619.20000000,272.33333333 620.43000000,272.77500000 621.66000000,273.21666667 622.89000000,273.65833333 624.12000000,274.10000000 625.35000000,274.54166667 626.58000000,274.98333333 627.81000000,275.42500000 629.04000000,275.86666667 630.27000000,276.30833333 631.50000000,276.75000000 632.73000000,277.19166667 633.96000000,277.63333333 635.19000000,278.07500000 636.42000000,278.51666667 637.65000000,278.95833333 638.88000000,279.40000000 640.11000000,279.84166667 641.34000000,280.28333333 642.57000000,280.72500000 643.80000000,281.16666667 645.03000000,281.60833333 646.26000000,282.05000000 647.49000000,282.49166667 648.72000000,282.93333333 649.95000000,283.37500000 651.18000000,283.81666667 652.41000000,284.25833333 653.64000000,284.70000000 654.87000000,285.14166667 656.10000000,285.58333333 657.33000000,286.02500000 658.56000000,286.46666667 659.79000000,286.90833333 661.02000000,287.35000000 662.25000000,287.79166667 663.48000000,288.23333333 664.71000000,288.67500000 665.94000000,289.11666667 667.17000000,289.55833333 668.40000000,290.00000000 669.63000000,290.44166667 670.86000000,290.88333333 672.09000000,291.32500000 673.32000000,291.76666667 674.55000000,292.20833333 675.78000000,292.65000000 677.01000000,293.09166667 678.24000000,293.53333333 679.47000000,293.97500000 680.70000000,294.41666667 681.93000000,294.85833333 683.16000000,295.30000000 684.39000000,295.74166667 685.62000000,296.18333333 686.85000000,296.62500000 688.08000000,297.06666667 689.31000000,297.50833333 690.54000000,297.95000000 691.77000000,298.39166667 693.00000000,298.83333333 694.23000000,299.27500000 695.46000000,299.71666667 696.69000000,300.15833333 697.92000000,300.60000000 699.15000000,301.04166667 700.38000000,301.48333333 701.61000000,301.92500000 702.84000000,302.36666667 704.07000000,302.80833333 705.30000000,303.25000000 706.53000000,303.69166667 707.76000000,304.13333333 708.99000000,304.57500000 710.22000000,305.01666667 711.45000000,305.45833333 712.68000000,305.90000000 713.91000000,306.34166667 715.14000000,306.78333333 716.37000000,307.22500000 717.60000000,307.66666667 718.83000000,308.10833333 720.06000000,308.55000000 721.29000000,308.99166667 722.52000000,309.43333333 723.75000000,309.87500000 724.98000000,310.31666667 726.21000000,310.75833333 727.44000000,311.20000000 728.67000000,311.64166667 729.90000000,312.08333333 731.13000000,312.52500000 732.36000000,312.96666667 733.59000000,313.40833333 734.82000000,313.85000000 736.05000000,314.29166667 737.28000000,314.73333333 738.51000000,315.17500000 739.74000000,315.61666667 740.97000000,316.05833333 742.20000000,316.50000000 743.43000000,316.94166667 744.66000000,317.38333333 745.89000000,317.82500000 747.12000000,318.26666667 748.35000000,318.70833333 749.58000000,319.15000000 750.81000000,319.59166667 752.04000000,320.03333333 753.27000000,320.47500000 754.50000000,320.91666667 755.73000000,321.35833333 756.96000000,321.80000000 758.19000000,322.24166667 759.42000000,322.68333333 760.65000000,323.12500000 761.88000000,323.56666667 763.11000000,324.00833333 764.34000000,324.45000000 765.57000000,324.89166667 766.80000000,325.33333333 768.03000000,325.77500000 769.26000000,326.21666667 770.49000000,326.65833333 771.72000000,327.10000000 772.95000000,327.54166667 774.18000000,327.98333333 775.41000000,328.42500000 776.64000000,328.86666667 777.87000000,329.30833333 779.10000000,329.75000000 780.33000000,330.19166667 781.56000000,330.63333333 782.79000000,331.07500000 784.02000000,331.51666667 785.25000000,331.95833333 786.48000000,332.40000000 787.71000000,332.84166667 788.94000000,333.28333333 790.17000000,333.72500000 791.40000000,334.16666667 792.63000000,334.60833333 793.86000000,335.05000000 795.09000000,335.49166667 796.32000000,335.93333333 797.55000000,336.37500000 798.78000000,336.81666667 800.01000000,337.25833333 801.24000000,337.70000000 802.47000000,338.14166667 803.70000000,338.58333333 804.93000000,339.02500000 806.16000000,339.46666667 807.39000000,339.90833333 808.62000000,340.35000000 809.85000000,340.79166667 811.08000000,341.23333333 812.31000000,341.67500000 813.54000000,342.11666667 814.77000000,342.55833333 816.00000000,343.00000000" fill="none" stroke="#146d9b" stroke-width="3" clip-path="url(#p0)"/>
<text x="690.5400" y="281.9500" font-family="Lato,DejaVu Sans,sans-serif" font-size="18" font-weight="700" text-anchor="start" fill="#146d9b">Vraag = GO</text>
<line x1="78.0000" y1="144.2500" x2="262.5000" y2="144.2500" stroke="#657986" stroke-width="1.1" stroke-dasharray="5 4"/>
<line x1="262.5000" y1="343.0000" x2="262.5000" y2="144.2500" stroke="#657986" stroke-width="1.1" stroke-dasharray="5 4"/>
<circle data-point="A: (60, 18)" data-panel="p0" cx="262.5000" cy="144.2500" r="4.2" fill="#183247"/>
<text x="270.5000" y="132.2500" font-family="Lato,DejaVu Sans,sans-serif" font-size="18" font-weight="700" text-anchor="start" fill="#183247">A: (60, 18)</text>
<line x1="78.0000" y1="210.5000" x2="447.0000" y2="210.5000" stroke="#657986" stroke-width="1.1" stroke-dasharray="5 4"/>
<line x1="447.0000" y1="343.0000" x2="447.0000" y2="210.5000" stroke="#657986" stroke-width="1.1" stroke-dasharray="5 4"/>
<circle data-point="B: (120, 12)" data-panel="p0" cx="447.0000" cy="210.5000" r="4.2" fill="#183247"/>
<text x="455.0000" y="198.5000" font-family="Lato,DejaVu Sans,sans-serif" font-size="18" font-weight="700" text-anchor="start" fill="#183247">B: (120, 12)</text>
</svg>