<svg xmlns="http://www.w3.org/2000/svg" width="900" height="440" viewBox="0 0 900 440" role="img"><title>De route is al getekend</title>
<defs><marker id="arrow" viewBox="0 0 10 10" refX="8" refY="5" markerWidth="5" markerHeight="5" orient="auto-start-reverse"><path d="M0,0 L10,5 L0,10" fill="none" stroke="#536777" stroke-width="1.5"/></marker><pattern id="hatch" width="9" height="9" patternUnits="userSpaceOnUse"><path d="M-2,2 L2,-2 M0,9 L9,0 M7,11 L11,7" stroke="#183247" stroke-opacity=".22" stroke-width="1"/></pattern></defs>
<rect width="900" height="440" rx="8" fill="#f5f8fa"/>
<text x="447.0000" y="27.0000" font-family="Lato,DejaVu Sans,sans-serif" font-size="21" font-weight="700" text-anchor="middle" fill="#183247">De route is al getekend</text>
<text x="78.0000" y="54.0000" font-family="Lato,DejaVu Sans,sans-serif" font-size="17" font-weight="400" text-anchor="start" fill="#183247">Bedrag (€ per kg)</text>
<defs><clipPath id="p0"><rect x="78" y="78" width="738" height="275"/></clipPath></defs>
<line x1="78.0000" y1="78.0000" x2="78.0000" y2="353.0000" stroke="#dbe4e9" stroke-width="0.7"/>
<text x="78.0000" y="378.0000" font-family="Lato,DejaVu Sans,sans-serif" font-size="17" font-weight="400" text-anchor="middle" fill="#183247">0</text>
<line x1="201.0000" y1="78.0000" x2="201.0000" y2="353.0000" stroke="#dbe4e9" stroke-width="0.7"/>
<text x="201.0000" y="378.0000" font-family="Lato,DejaVu Sans,sans-serif" font-size="17" font-weight="400" text-anchor="middle" fill="#183247">20</text>
<line x1="324.0000" y1="78.0000" x2="324.0000" y2="353.0000" stroke="#dbe4e9" stroke-width="0.7"/>
<text x="324.0000" y="378.0000" font-family="Lato,DejaVu Sans,sans-serif" font-size="17" font-weight="400" text-anchor="middle" fill="#183247">40</text>
<line x1="447.0000" y1="78.0000" x2="447.0000" y2="353.0000" stroke="#dbe4e9" stroke-width="0.7"/>
<text x="447.0000" y="378.0000" font-family="Lato,DejaVu Sans,sans-serif" font-size="17" font-weight="400" text-anchor="middle" fill="#183247">60</text>
<line x1="570.0000" y1="78.0000" x2="570.0000" y2="353.0000" stroke="#dbe4e9" stroke-width="0.7"/>
<text x="570.0000" y="378.0000" font-family="Lato,DejaVu Sans,sans-serif" font-size="17" font-weight="400" text-anchor="middle" fill="#183247">80</text>
<line x1="693.0000" y1="78.0000" x2="693.0000" y2="353.0000" stroke="#dbe4e9" stroke-width="0.7"/>
<text x="693.0000" y="378.0000" font-family="Lato,DejaVu Sans,sans-serif" font-size="17" font-weight="400" text-anchor="middle" fill="#183247">100</text>
<line x1="816.0000" y1="78.0000" x2="816.0000" y2="353.0000" stroke="#dbe4e9" stroke-width="0.7"/>
<text x="816.0000" y="378.0000" font-family="Lato,DejaVu Sans,sans-serif" font-size="17" font-weight="400" text-anchor="middle" fill="#183247">120</text>
<line x1="78.0000" y1="353.0000" x2="816.0000" y2="353.0000" stroke="#dbe4e9" stroke-width="0.7"/>
<text x="67.0000" y="358.0000" font-family="Lato,DejaVu Sans,sans-serif" font-size="17" font-weight="400" text-anchor="end" fill="#183247">0</text>
<line x1="78.0000" y1="298.0000" x2="816.0000" y2="298.0000" stroke="#dbe4e9" stroke-width="0.7"/>
<text x="67.0000" y="303.0000" font-family="Lato,DejaVu Sans,sans-serif" font-size="17" font-weight="400" text-anchor="end" fill="#183247">4</text>
<line x1="78.0000" y1="215.5000" x2="816.0000" y2="215.5000" stroke="#dbe4e9" stroke-width="0.7"/>
<text x="67.0000" y="220.5000" font-family="Lato,DejaVu Sans,sans-serif" font-size="17" font-weight="400" text-anchor="end" fill="#183247">10</text>
<line x1="78.0000" y1="188.0000" x2="816.0000" y2="188.0000" stroke="#dbe4e9" stroke-width="0.7"/>
<text x="67.0000" y="193.0000" font-family="Lato,DejaVu Sans,sans-serif" font-size="17" font-weight="400" text-anchor="end" fill="#183247">12</text>
<line x1="78.0000" y1="146.7500" x2="816.0000" y2="146.7500" stroke="#dbe4e9" stroke-width="0.7"/>
<text x="67.0000" y="151.7500" font-family="Lato,DejaVu Sans,sans-serif" font-size="17" font-weight="400" text-anchor="end" fill="#183247">15</text>
<line x1="78.0000" y1="78.0000" x2="816.0000" y2="78.0000" stroke="#dbe4e9" stroke-width="0.7"/>
<text x="67.0000" y="83.0000" font-family="Lato,DejaVu Sans,sans-serif" font-size="17" font-weight="400" text-anchor="end" fill="#183247">20</text>
<line x1="78.0000" y1="353.0000" x2="823.0000" y2="353.0000" stroke="#183247" stroke-width="1.7" marker-end="url(#arrow)"/>
<line x1="78.0000" y1="353.0000" x2="78.0000" y2="73.0000" stroke="#183247" stroke-width="1.7" marker-end="url(#arrow)"/>
<text x="447.0000" y="405.0000" font-family="Lato,DejaVu Sans,sans-serif" font-size="18" font-weight="400" text-anchor="middle" fill="#183247">q (kg per week)</text>
<polyline data-panel="p0" data-curve="GO = P" points="78.00000000,78.00000000 79.23000000,78.27500000 80.46000000,78.55000000 81.69000000,78.82500000 82.92000000,79.10000000 84.15000000,79.37500000 85.38000000,79.65000000 86.61000000,79.92500000 87.84000000,80.20000000 89.07000000,80.47500000 90.30000000,80.75000000 91.53000000,81.02500000 92.76000000,81.30000000 93.99000000,81.57500000 95.22000000,81.85000000 96.45000000,82.12500000 97.68000000,82.40000000 98.91000000,82.67500000 100.14000000,82.95000000 101.37000000,83.22500000 102.60000000,83.50000000 103.83000000,83.77500000 105.06000000,84.05000000 106.29000000,84.32500000 107.52000000,84.60000000 108.75000000,84.87500000 109.98000000,85.15000000 111.21000000,85.42500000 112.44000000,85.70000000 113.67000000,85.97500000 114.90000000,86.25000000 116.13000000,86.52500000 117.36000000,86.80000000 118.59000000,87.07500000 119.82000000,87.35000000 121.05000000,87.62500000 122.28000000,87.90000000 123.51000000,88.17500000 124.74000000,88.45000000 125.97000000,88.72500000 127.20000000,89.00000000 128.43000000,89.27500000 129.66000000,89.55000000 130.89000000,89.82500000 132.12000000,90.10000000 133.35000000,90.37500000 134.58000000,90.65000000 135.81000000,90.92500000 137.04000000,91.20000000 138.27000000,91.47500000 139.50000000,91.75000000 140.73000000,92.02500000 141.96000000,92.30000000 143.19000000,92.57500000 144.42000000,92.85000000 145.65000000,93.12500000 146.88000000,93.40000000 148.11000000,93.67500000 149.34000000,93.95000000 150.57000000,94.22500000 151.80000000,94.50000000 153.03000000,94.77500000 154.26000000,95.05000000 155.49000000,95.32500000 156.72000000,95.60000000 157.95000000,95.87500000 159.18000000,96.15000000 160.41000000,96.42500000 161.64000000,96.70000000 162.87000000,96.97500000 164.10000000,97.25000000 165.33000000,97.52500000 166.56000000,97.80000000 167.79000000,98.07500000 169.02000000,98.35000000 170.25000000,98.62500000 171.48000000,98.90000000 172.71000000,99.17500000 173.94000000,99.45000000 175.17000000,99.72500000 176.40000000,100.00000000 177.63000000,100.27500000 178.86000000,100.55000000 180.09000000,100.82500000 181.32000000,101.10000000 182.55000000,101.37500000 183.78000000,101.65000000 185.01000000,101.92500000 186.24000000,102.20000000 187.47000000,102.47500000 188.70000000,102.75000000 189.93000000,103.02500000 191.16000000,103.30000000 192.39000000,103.57500000 193.62000000,103.85000000 194.85000000,104.12500000 196.08000000,104.40000000 197.31000000,104.67500000 198.54000000,104.95000000 199.77000000,105.22500000 201.00000000,105.50000000 202.23000000,105.77500000 203.46000000,106.05000000 204.69000000,106.32500000 205.92000000,106.60000000 207.15000000,106.87500000 208.38000000,107.15000000 209.61000000,107.42500000 210.84000000,107.70000000 212.07000000,107.97500000 213.30000000,108.25000000 214.53000000,108.52500000 215.76000000,108.80000000 216.99000000,109.07500000 218.22000000,109.35000000 219.45000000,109.62500000 220.68000000,109.90000000 221.91000000,110.17500000 223.14000000,110.45000000 224.37000000,110.72500000 225.60000000,111.00000000 226.83000000,111.27500000 228.06000000,111.55000000 229.29000000,111.82500000 230.52000000,112.10000000 231.75000000,112.37500000 232.98000000,112.65000000 234.21000000,112.92500000 235.44000000,113.20000000 236.67000000,113.47500000 237.90000000,113.75000000 239.13000000,114.02500000 240.36000000,114.30000000 241.59000000,114.57500000 242.82000000,114.85000000 244.05000000,115.12500000 245.28000000,115.40000000 246.51000000,115.67500000 247.74000000,115.95000000 248.97000000,116.22500000 250.20000000,116.50000000 251.43000000,116.77500000 252.66000000,117.05000000 253.89000000,117.32500000 255.12000000,117.60000000 256.35000000,117.87500000 257.58000000,118.15000000 258.81000000,118.42500000 260.04000000,118.70000000 261.27000000,118.97500000 262.50000000,119.25000000 263.73000000,119.52500000 264.96000000,119.80000000 266.19000000,120.07500000 267.42000000,120.35000000 268.65000000,120.62500000 269.88000000,120.90000000 271.11000000,121.17500000 272.34000000,121.45000000 273.57000000,121.72500000 274.80000000,122.00000000 276.03000000,122.27500000 277.26000000,122.55000000 278.49000000,122.82500000 279.72000000,123.10000000 280.95000000,123.37500000 282.18000000,123.65000000 283.41000000,123.92500000 284.64000000,124.20000000 285.87000000,124.47500000 287.10000000,124.75000000 288.33000000,125.02500000 289.56000000,125.30000000 290.79000000,125.57500000 292.02000000,125.85000000 293.25000000,126.12500000 294.48000000,126.40000000 295.71000000,126.67500000 296.94000000,126.95000000 298.17000000,127.22500000 299.40000000,127.50000000 300.63000000,127.77500000 301.86000000,128.05000000 303.09000000,128.32500000 304.32000000,128.60000000 305.55000000,128.87500000 306.78000000,129.15000000 308.01000000,129.42500000 309.24000000,129.70000000 310.47000000,129.97500000 311.70000000,130.25000000 312.93000000,130.52500000 314.16000000,130.80000000 315.39000000,131.07500000 316.62000000,131.35000000 317.85000000,131.62500000 319.08000000,131.90000000 320.31000000,132.17500000 321.54000000,132.45000000 322.77000000,132.72500000 324.00000000,133.00000000 325.23000000,133.27500000 326.46000000,133.55000000 327.69000000,133.82500000 328.92000000,134.10000000 330.15000000,134.37500000 331.38000000,134.65000000 332.61000000,134.92500000 333.84000000,135.20000000 335.07000000,135.47500000 336.30000000,135.75000000 337.53000000,136.02500000 338.76000000,136.30000000 339.99000000,136.57500000 341.22000000,136.85000000 342.45000000,137.12500000 343.68000000,137.40000000 344.91000000,137.67500000 346.14000000,137.95000000 347.37000000,138.22500000 348.60000000,138.50000000 349.83000000,138.77500000 351.06000000,139.05000000 352.29000000,139.32500000 353.52000000,139.60000000 354.75000000,139.87500000 355.98000000,140.15000000 357.21000000,140.42500000 358.44000000,140.70000000 359.67000000,140.97500000 360.90000000,141.25000000 362.13000000,141.52500000 363.36000000,141.80000000 364.59000000,142.07500000 365.82000000,142.35000000 367.05000000,142.62500000 368.28000000,142.90000000 369.51000000,143.17500000 370.74000000,143.45000000 371.97000000,143.72500000 373.20000000,144.00000000 374.43000000,144.27500000 375.66000000,144.55000000 376.89000000,144.82500000 378.12000000,145.10000000 379.35000000,145.37500000 380.58000000,145.65000000 381.81000000,145.92500000 383.04000000,146.20000000 384.27000000,146.47500000 385.50000000,146.75000000 386.73000000,147.02500000 387.96000000,147.30000000 389.19000000,147.57500000 390.42000000,147.85000000 391.65000000,148.12500000 392.88000000,148.40000000 394.11000000,148.67500000 395.34000000,148.95000000 396.57000000,149.22500000 397.80000000,149.50000000 399.03000000,149.77500000 400.26000000,150.05000000 401.49000000,150.32500000 402.72000000,150.60000000 403.95000000,150.87500000 405.18000000,151.15000000 406.41000000,151.42500000 407.64000000,151.70000000 408.87000000,151.97500000 410.10000000,152.25000000 411.33000000,152.52500000 412.56000000,152.80000000 413.79000000,153.07500000 415.02000000,153.35000000 416.25000000,153.62500000 417.48000000,153.90000000 418.71000000,154.17500000 419.94000000,154.45000000 421.17000000,154.72500000 422.40000000,155.00000000 423.63000000,155.27500000 424.86000000,155.55000000 426.09000000,155.82500000 427.32000000,156.10000000 428.55000000,156.37500000 429.78000000,156.65000000 431.01000000,156.92500000 432.24000000,157.20000000 433.47000000,157.47500000 434.70000000,157.75000000 435.93000000,158.02500000 437.16000000,158.30000000 438.39000000,158.57500000 439.62000000,158.85000000 440.85000000,159.12500000 442.08000000,159.40000000 443.31000000,159.67500000 444.54000000,159.95000000 445.77000000,160.22500000 447.00000000,160.50000000 448.23000000,160.77500000 449.46000000,161.05000000 450.69000000,161.32500000 451.92000000,161.60000000 453.15000000,161.87500000 454.38000000,162.15000000 455.61000000,162.42500000 456.84000000,162.70000000 458.07000000,162.97500000 459.30000000,163.25000000 460.53000000,163.52500000 461.76000000,163.80000000 462.99000000,164.07500000 464.22000000,164.35000000 465.45000000,164.62500000 466.68000000,164.90000000 467.91000000,165.17500000 469.14000000,165.45000000 470.37000000,165.72500000 471.60000000,166.00000000 472.83000000,166.27500000 474.06000000,166.55000000 475.29000000,166.82500000 476.52000000,167.10000000 477.75000000,167.37500000 478.98000000,167.65000000 480.21000000,167.92500000 481.44000000,168.20000000 482.67000000,168.47500000 483.90000000,168.75000000 485.13000000,169.02500000 486.36000000,169.30000000 487.59000000,169.57500000 488.82000000,169.85000000 490.05000000,170.12500000 491.28000000,170.40000000 492.51000000,170.67500000 493.74000000,170.95000000 494.97000000,171.22500000 496.20000000,171.50000000 497.43000000,171.77500000 498.66000000,172.05000000 499.89000000,172.32500000 501.12000000,172.60000000 502.35000000,172.87500000 503.58000000,173.15000000 504.81000000,173.42500000 506.04000000,173.70000000 507.27000000,173.97500000 508.50000000,174.25000000 509.73000000,174.52500000 510.96000000,174.80000000 512.19000000,175.07500000 513.42000000,175.35000000 514.65000000,175.62500000 515.88000000,175.90000000 517.11000000,176.17500000 518.34000000,176.45000000 519.57000000,176.72500000 520.80000000,177.00000000 522.03000000,177.27500000 523.26000000,177.55000000 524.49000000,177.82500000 525.72000000,178.10000000 526.95000000,178.37500000 528.18000000,178.65000000 529.41000000,178.92500000 530.64000000,179.20000000 531.87000000,179.47500000 533.10000000,179.75000000 534.33000000,180.02500000 535.56000000,180.30000000 536.79000000,180.57500000 538.02000000,180.85000000 539.25000000,181.12500000 540.48000000,181.40000000 541.71000000,181.67500000 542.94000000,181.95000000 544.17000000,182.22500000 545.40000000,182.50000000 546.63000000,182.77500000 547.86000000,183.05000000 549.09000000,183.32500000 550.32000000,183.60000000 551.55000000,183.87500000 552.78000000,184.15000000 554.01000000,184.42500000 555.24000000,184.70000000 556.47000000,184.97500000 557.70000000,185.25000000 558.93000000,185.52500000 560.16000000,185.80000000 561.39000000,186.07500000 562.62000000,186.35000000 563.85000000,186.62500000 565.08000000,186.90000000 566.31000000,187.17500000 567.54000000,187.45000000 568.77000000,187.72500000 570.00000000,188.00000000 571.23000000,188.27500000 572.46000000,188.55000000 573.69000000,188.82500000 574.92000000,189.10000000 576.15000000,189.37500000 577.38000000,189.65000000 578.61000000,189.92500000 579.84000000,190.20000000 581.07000000,190.47500000 582.30000000,190.75000000 583.53000000,191.02500000 584.76000000,191.30000000 585.99000000,191.57500000 587.22000000,191.85000000 588.45000000,192.12500000 589.68000000,192.40000000 590.91000000,192.67500000 592.14000000,192.95000000 593.37000000,193.22500000 594.60000000,193.50000000 595.83000000,193.77500000 597.06000000,194.05000000 598.29000000,194.32500000 599.52000000,194.60000000 600.75000000,194.87500000 601.98000000,195.15000000 603.21000000,195.42500000 604.44000000,195.70000000 605.67000000,195.97500000 606.90000000,196.25000000 608.13000000,196.52500000 609.36000000,196.80000000 610.59000000,197.07500000 611.82000000,197.35000000 613.05000000,197.62500000 614.28000000,197.90000000 615.51000000,198.17500000 616.74000000,198.45000000 617.97000000,198.72500000 619.20000000,199.00000000 620.43000000,199.27500000 621.66000000,199.55000000 622.89000000,199.82500000 624.12000000,200.10000000 625.35000000,200.37500000 626.58000000,200.65000000 627.81000000,200.92500000 629.04000000,201.20000000 630.27000000,201.47500000 631.50000000,201.75000000 632.73000000,202.02500000 633.96000000,202.30000000 635.19000000,202.57500000 636.42000000,202.85000000 637.65000000,203.12500000 638.88000000,203.40000000 640.11000000,203.67500000 641.34000000,203.95000000 642.57000000,204.22500000 643.80000000,204.50000000 645.03000000,204.77500000 646.26000000,205.05000000 647.49000000,205.32500000 648.72000000,205.60000000 649.95000000,205.87500000 651.18000000,206.15000000 652.41000000,206.42500000 653.64000000,206.70000000 654.87000000,206.97500000 656.10000000,207.25000000 657.33000000,207.52500000 658.56000000,207.80000000 659.79000000,208.07500000 661.02000000,208.35000000 662.25000000,208.62500000 663.48000000,208.90000000 664.71000000,209.17500000 665.94000000,209.45000000 667.17000000,209.72500000 668.40000000,210.00000000 669.63000000,210.27500000 670.86000000,210.55000000 672.09000000,210.82500000 673.32000000,211.10000000 674.55000000,211.37500000 675.78000000,211.65000000 677.01000000,211.92500000 678.24000000,212.20000000 679.47000000,212.47500000 680.70000000,212.75000000 681.93000000,213.02500000 683.16000000,213.30000000 684.39000000,213.57500000 685.62000000,213.85000000 686.85000000,214.12500000 688.08000000,214.40000000 689.31000000,214.67500000 690.54000000,214.95000000 691.77000000,215.22500000 693.00000000,215.50000000 694.23000000,215.77500000 695.46000000,216.05000000 696.69000000,216.32500000 697.92000000,216.60000000 699.15000000,216.87500000 700.38000000,217.15000000 701.61000000,217.42500000 702.84000000,217.70000000 704.07000000,217.97500000 705.30000000,218.25000000 706.53000000,218.52500000 707.76000000,218.80000000 708.99000000,219.07500000 710.22000000,219.35000000 711.45000000,219.62500000 712.68000000,219.90000000 713.91000000,220.17500000 715.14000000,220.45000000 716.37000000,220.72500000 717.60000000,221.00000000 718.83000000,221.27500000 720.06000000,221.55000000 721.29000000,221.82500000 722.52000000,222.10000000 723.75000000,222.37500000 724.98000000,222.65000000 726.21000000,222.92500000 727.44000000,223.20000000 728.67000000,223.47500000 729.90000000,223.75000000 731.13000000,224.02500000 732.36000000,224.30000000 733.59000000,224.57500000 734.82000000,224.85000000 736.05000000,225.12500000 737.28000000,225.40000000 738.51000000,225.67500000 739.74000000,225.95000000 740.97000000,226.22500000 742.20000000,226.50000000 743.43000000,226.77500000 744.66000000,227.05000000 745.89000000,227.32500000 747.12000000,227.60000000 748.35000000,227.87500000 749.58000000,228.15000000 750.81000000,228.42500000 752.04000000,228.70000000 753.27000000,228.97500000 754.50000000,229.25000000 755.73000000,229.52500000 756.96000000,229.80000000 758.19000000,230.07500000 759.42000000,230.35000000 760.65000000,230.62500000 761.88000000,230.90000000 763.11000000,231.17500000 764.34000000,231.45000000 765.57000000,231.72500000 766.80000000,232.00000000 768.03000000,232.27500000 769.26000000,232.55000000 770.49000000,232.82500000 771.72000000,233.10000000 772.95000000,233.37500000 774.18000000,233.65000000 775.41000000,233.92500000 776.64000000,234.20000000 777.87000000,234.47500000 779.10000000,234.75000000 780.33000000,235.02500000 781.56000000,235.30000000 782.79000000,235.57500000 784.02000000,235.85000000 785.25000000,236.12500000 786.48000000,236.40000000 787.71000000,236.67500000 788.94000000,236.95000000 790.17000000,237.22500000 791.40000000,237.50000000 792.63000000,237.77500000 793.86000000,238.05000000 795.09000000,238.32500000 796.32000000,238.60000000 797.55000000,238.87500000 798.78000000,239.15000000 800.01000000,239.42500000 801.24000000,239.70000000 802.47000000,239.97500000 803.70000000,240.25000000 804.93000000,240.52500000 806.16000000,240.80000000 807.39000000,241.07500000 808.62000000,241.35000000 809.85000000,241.62500000 811.08000000,241.90000000 812.31000000,242.17500000 813.54000000,242.45000000 814.77000000,242.72500000 816.00000000,243.00000000" fill="none" stroke="#146d9b" stroke-width="3" clip-path="url(#p0)"/>
<text x="609.3600" y="183.8000" font-family="Lato,DejaVu Sans,sans-serif" font-size="18" font-weight="700" text-anchor="start" fill="#146d9b">GO = P</text>
<polyline data-panel="p0" data-curve="MO" points="78.00000000,78.00000000 79.23000000,78.55000000 80.46000000,79.10000000 81.69000000,79.65000000 82.92000000,80.20000000 84.15000000,80.75000000 85.38000000,81.30000000 86.61000000,81.85000000 87.84000000,82.40000000 89.07000000,82.95000000 90.30000000,83.50000000 91.53000000,84.05000000 92.76000000,84.60000000 93.99000000,85.15000000 95.22000000,85.70000000 96.45000000,86.25000000 97.68000000,86.80000000 98.91000000,87.35000000 100.14000000,87.90000000 101.37000000,88.45000000 102.60000000,89.00000000 103.83000000,89.55000000 105.06000000,90.10000000 106.29000000,90.65000000 107.52000000,91.20000000 108.75000000,91.75000000 109.98000000,92.30000000 111.21000000,92.85000000 112.44000000,93.40000000 113.67000000,93.95000000 114.90000000,94.50000000 116.13000000,95.05000000 117.36000000,95.60000000 118.59000000,96.15000000 119.82000000,96.70000000 121.05000000,97.25000000 122.28000000,97.80000000 123.51000000,98.35000000 124.74000000,98.90000000 125.97000000,99.45000000 127.20000000,100.00000000 128.43000000,100.55000000 129.66000000,101.10000000 130.89000000,101.65000000 132.12000000,102.20000000 133.35000000,102.75000000 134.58000000,103.30000000 135.81000000,103.85000000 137.04000000,104.40000000 138.27000000,104.95000000 139.50000000,105.50000000 140.73000000,106.05000000 141.96000000,106.60000000 143.19000000,107.15000000 144.42000000,107.70000000 145.65000000,108.25000000 146.88000000,108.80000000 148.11000000,109.35000000 149.34000000,109.90000000 150.57000000,110.45000000 151.80000000,111.00000000 153.03000000,111.55000000 154.26000000,112.10000000 155.49000000,112.65000000 156.72000000,113.20000000 157.95000000,113.75000000 159.18000000,114.30000000 160.41000000,114.85000000 161.64000000,115.40000000 162.87000000,115.95000000 164.10000000,116.50000000 165.33000000,117.05000000 166.56000000,117.60000000 167.79000000,118.15000000 169.02000000,118.70000000 170.25000000,119.25000000 171.48000000,119.80000000 172.71000000,120.35000000 173.94000000,120.90000000 175.17000000,121.45000000 176.40000000,122.00000000 177.63000000,122.55000000 178.86000000,123.10000000 180.09000000,123.65000000 181.32000000,124.20000000 182.55000000,124.75000000 183.78000000,125.30000000 185.01000000,125.85000000 186.24000000,126.40000000 187.47000000,126.95000000 188.70000000,127.50000000 189.93000000,128.05000000 191.16000000,128.60000000 192.39000000,129.15000000 193.62000000,129.70000000 194.85000000,130.25000000 196.08000000,130.80000000 197.31000000,131.35000000 198.54000000,131.90000000 199.77000000,132.45000000 201.00000000,133.00000000 202.23000000,133.55000000 203.46000000,134.10000000 204.69000000,134.65000000 205.92000000,135.20000000 207.15000000,135.75000000 208.38000000,136.30000000 209.61000000,136.85000000 210.84000000,137.40000000 212.07000000,137.95000000 213.30000000,138.50000000 214.53000000,139.05000000 215.76000000,139.60000000 216.99000000,140.15000000 218.22000000,140.70000000 219.45000000,141.25000000 220.68000000,141.80000000 221.91000000,142.35000000 223.14000000,142.90000000 224.37000000,143.45000000 225.60000000,144.00000000 226.83000000,144.55000000 228.06000000,145.10000000 229.29000000,145.65000000 230.52000000,146.20000000 231.75000000,146.75000000 232.98000000,147.30000000 234.21000000,147.85000000 235.44000000,148.40000000 236.67000000,148.95000000 237.90000000,149.50000000 239.13000000,150.05000000 240.36000000,150.60000000 241.59000000,151.15000000 242.82000000,151.70000000 244.05000000,152.25000000 245.28000000,152.80000000 246.51000000,153.35000000 247.74000000,153.90000000 248.97000000,154.45000000 250.20000000,155.00000000 251.43000000,155.55000000 252.66000000,156.10000000 253.89000000,156.65000000 255.12000000,157.20000000 256.35000000,157.75000000 257.58000000,158.30000000 258.81000000,158.85000000 260.04000000,159.40000000 261.27000000,159.95000000 262.50000000,160.50000000 263.73000000,161.05000000 264.96000000,161.60000000 266.19000000,162.15000000 267.42000000,162.70000000 268.65000000,163.25000000 269.88000000,163.80000000 271.11000000,164.35000000 272.34000000,164.90000000 273.57000000,165.45000000 274.80000000,166.00000000 276.03000000,166.55000000 277.26000000,167.10000000 278.49000000,167.65000000 279.72000000,168.20000000 280.95000000,168.75000000 282.18000000,169.30000000 283.41000000,169.85000000 284.64000000,170.40000000 285.87000000,170.95000000 287.10000000,171.50000000 288.33000000,172.05000000 289.56000000,172.60000000 290.79000000,173.15000000 292.02000000,173.70000000 293.25000000,174.25000000 294.48000000,174.80000000 295.71000000,175.35000000 296.94000000,175.90000000 298.17000000,176.45000000 299.40000000,177.00000000 300.63000000,177.55000000 301.86000000,178.10000000 303.09000000,178.65000000 304.32000000,179.20000000 305.55000000,179.75000000 306.78000000,180.30000000 308.01000000,180.85000000 309.24000000,181.40000000 310.47000000,181.95000000 311.70000000,182.50000000 312.93000000,183.05000000 314.16000000,183.60000000 315.39000000,184.15000000 316.62000000,184.70000000 317.85000000,185.25000000 319.08000000,185.80000000 320.31000000,186.35000000 321.54000000,186.90000000 322.77000000,187.45000000 324.00000000,188.00000000 325.23000000,188.55000000 326.46000000,189.10000000 327.69000000,189.65000000 328.92000000,190.20000000 330.15000000,190.75000000 331.38000000,191.30000000 332.61000000,191.85000000 333.84000000,192.40000000 335.07000000,192.95000000 336.30000000,193.50000000 337.53000000,194.05000000 338.76000000,194.60000000 339.99000000,195.15000000 341.22000000,195.70000000 342.45000000,196.25000000 343.68000000,196.80000000 344.91000000,197.35000000 346.14000000,197.90000000 347.37000000,198.45000000 348.60000000,199.00000000 349.83000000,199.55000000 351.06000000,200.10000000 352.29000000,200.65000000 353.52000000,201.20000000 354.75000000,201.75000000 355.98000000,202.30000000 357.21000000,202.85000000 358.44000000,203.40000000 359.67000000,203.95000000 360.90000000,204.50000000 362.13000000,205.05000000 363.36000000,205.60000000 364.59000000,206.15000000 365.82000000,206.70000000 367.05000000,207.25000000 368.28000000,207.80000000 369.51000000,208.35000000 370.74000000,208.90000000 371.97000000,209.45000000 373.20000000,210.00000000 374.43000000,210.55000000 375.66000000,211.10000000 376.89000000,211.65000000 378.12000000,212.20000000 379.35000000,212.75000000 380.58000000,213.30000000 381.81000000,213.85000000 383.04000000,214.40000000 384.27000000,214.95000000 385.50000000,215.50000000 386.73000000,216.05000000 387.96000000,216.60000000 389.19000000,217.15000000 390.42000000,217.70000000 391.65000000,218.25000000 392.88000000,218.80000000 394.11000000,219.35000000 395.34000000,219.90000000 396.57000000,220.45000000 397.80000000,221.00000000 399.03000000,221.55000000 400.26000000,222.10000000 401.49000000,222.65000000 402.72000000,223.20000000 403.95000000,223.75000000 405.18000000,224.30000000 406.41000000,224.85000000 407.64000000,225.40000000 408.87000000,225.95000000 410.10000000,226.50000000 411.33000000,227.05000000 412.56000000,227.60000000 413.79000000,228.15000000 415.02000000,228.70000000 416.25000000,229.25000000 417.48000000,229.80000000 418.71000000,230.35000000 419.94000000,230.90000000 421.17000000,231.45000000 422.40000000,232.00000000 423.63000000,232.55000000 424.86000000,233.10000000 426.09000000,233.65000000 427.32000000,234.20000000 428.55000000,234.75000000 429.78000000,235.30000000 431.01000000,235.85000000 432.24000000,236.40000000 433.47000000,236.95000000 434.70000000,237.50000000 435.93000000,238.05000000 437.16000000,238.60000000 438.39000000,239.15000000 439.62000000,239.70000000 440.85000000,240.25000000 442.08000000,240.80000000 443.31000000,241.35000000 444.54000000,241.90000000 445.77000000,242.45000000 447.00000000,243.00000000 448.23000000,243.55000000 449.46000000,244.10000000 450.69000000,244.65000000 451.92000000,245.20000000 453.15000000,245.75000000 454.38000000,246.30000000 455.61000000,246.85000000 456.84000000,247.40000000 458.07000000,247.95000000 459.30000000,248.50000000 460.53000000,249.05000000 461.76000000,249.60000000 462.99000000,250.15000000 464.22000000,250.70000000 465.45000000,251.25000000 466.68000000,251.80000000 467.91000000,252.35000000 469.14000000,252.90000000 470.37000000,253.45000000 471.60000000,254.00000000 472.83000000,254.55000000 474.06000000,255.10000000 475.29000000,255.65000000 476.52000000,256.20000000 477.75000000,256.75000000 478.98000000,257.30000000 480.21000000,257.85000000 481.44000000,258.40000000 482.67000000,258.95000000 483.90000000,259.50000000 485.13000000,260.05000000 486.36000000,260.60000000 487.59000000,261.15000000 488.82000000,261.70000000 490.05000000,262.25000000 491.28000000,262.80000000 492.51000000,263.35000000 493.74000000,263.90000000 494.97000000,264.45000000 496.20000000,265.00000000 497.43000000,265.55000000 498.66000000,266.10000000 499.89000000,266.65000000 501.12000000,267.20000000 502.35000000,267.75000000 503.58000000,268.30000000 504.81000000,268.85000000 506.04000000,269.40000000 507.27000000,269.95000000 508.50000000,270.50000000 509.73000000,271.05000000 510.96000000,271.60000000 512.19000000,272.15000000 513.42000000,272.70000000 514.65000000,273.25000000 515.88000000,273.80000000 517.11000000,274.35000000 518.34000000,274.90000000 519.57000000,275.45000000 520.80000000,276.00000000 522.03000000,276.55000000 523.26000000,277.10000000 524.49000000,277.65000000 525.72000000,278.20000000 526.95000000,278.75000000 528.18000000,279.30000000 529.41000000,279.85000000 530.64000000,280.40000000 531.87000000,280.95000000 533.10000000,281.50000000 534.33000000,282.05000000 535.56000000,282.60000000 536.79000000,283.15000000 538.02000000,283.70000000 539.25000000,284.25000000 540.48000000,284.80000000 541.71000000,285.35000000 542.94000000,285.90000000 544.17000000,286.45000000 545.40000000,287.00000000 546.63000000,287.55000000 547.86000000,288.10000000 549.09000000,288.65000000 550.32000000,289.20000000 551.55000000,289.75000000 552.78000000,290.30000000 554.01000000,290.85000000 555.24000000,291.40000000 556.47000000,291.95000000 557.70000000,292.50000000 558.93000000,293.05000000 560.16000000,293.60000000 561.39000000,294.15000000 562.62000000,294.70000000 563.85000000,295.25000000 565.08000000,295.80000000 566.31000000,296.35000000 567.54000000,296.90000000 568.77000000,297.45000000 570.00000000,298.00000000 571.23000000,298.55000000 572.46000000,299.10000000 573.69000000,299.65000000 574.92000000,300.20000000 576.15000000,300.75000000 577.38000000,301.30000000 578.61000000,301.85000000 579.84000000,302.40000000 581.07000000,302.95000000 582.30000000,303.50000000 583.53000000,304.05000000 584.76000000,304.60000000 585.99000000,305.15000000 587.22000000,305.70000000 588.45000000,306.25000000 589.68000000,306.80000000 590.91000000,307.35000000 592.14000000,307.90000000 593.37000000,308.45000000 594.60000000,309.00000000 595.83000000,309.55000000 597.06000000,310.10000000 598.29000000,310.65000000 599.52000000,311.20000000 600.75000000,311.75000000 601.98000000,312.30000000 603.21000000,312.85000000 604.44000000,313.40000000 605.67000000,313.95000000 606.90000000,314.50000000 608.13000000,315.05000000 609.36000000,315.60000000 610.59000000,316.15000000 611.82000000,316.70000000 613.05000000,317.25000000 614.28000000,317.80000000 615.51000000,318.35000000 616.74000000,318.90000000 617.97000000,319.45000000 619.20000000,320.00000000 620.43000000,320.55000000 621.66000000,321.10000000 622.89000000,321.65000000 624.12000000,322.20000000 625.35000000,322.75000000 626.58000000,323.30000000 627.81000000,323.85000000 629.04000000,324.40000000 630.27000000,324.95000000 631.50000000,325.50000000 632.73000000,326.05000000 633.96000000,326.60000000 635.19000000,327.15000000 636.42000000,327.70000000 637.65000000,328.25000000 638.88000000,328.80000000 640.11000000,329.35000000 641.34000000,329.90000000 642.57000000,330.45000000 643.80000000,331.00000000 645.03000000,331.55000000 646.26000000,332.10000000 647.49000000,332.65000000 648.72000000,333.20000000 649.95000000,333.75000000 651.18000000,334.30000000 652.41000000,334.85000000 653.64000000,335.40000000 654.87000000,335.95000000 656.10000000,336.50000000 657.33000000,337.05000000 658.56000000,337.60000000 659.79000000,338.15000000 661.02000000,338.70000000 662.25000000,339.25000000 663.48000000,339.80000000 664.71000000,340.35000000 665.94000000,340.90000000 667.17000000,341.45000000 668.40000000,342.00000000 669.63000000,342.55000000 670.86000000,343.10000000 672.09000000,343.65000000 673.32000000,344.20000000 674.55000000,344.75000000 675.78000000,345.30000000 677.01000000,345.85000000 678.24000000,346.40000000 679.47000000,346.95000000 680.70000000,347.50000000 681.93000000,348.05000000 683.16000000,348.60000000 684.39000000,349.15000000 685.62000000,349.70000000 686.85000000,350.25000000 688.08000000,350.80000000 689.31000000,351.35000000 690.54000000,351.90000000 691.77000000,352.45000000 693.00000000,353.00000000 694.23000000,353.55000000 695.46000000,354.10000000 696.69000000,354.65000000 697.92000000,355.20000000 699.15000000,355.75000000 700.38000000,356.30000000 701.61000000,356.85000000 702.84000000,357.40000000 704.07000000,357.95000000 705.30000000,358.50000000 706.53000000,359.05000000 707.76000000,359.60000000 708.99000000,360.15000000 710.22000000,360.70000000 711.45000000,361.25000000 712.68000000,361.80000000 713.91000000,362.35000000 715.14000000,362.90000000 716.37000000,363.45000000 717.60000000,364.00000000 718.83000000,364.55000000 720.06000000,365.10000000 721.29000000,365.65000000 722.52000000,366.20000000 723.75000000,366.75000000 724.98000000,367.30000000 726.21000000,367.85000000 727.44000000,368.40000000 728.67000000,368.95000000 729.90000000,369.50000000 731.13000000,370.05000000 732.36000000,370.60000000 733.59000000,371.15000000 734.82000000,371.70000000 736.05000000,372.25000000 737.28000000,372.80000000 738.51000000,373.35000000 739.74000000,373.90000000 740.97000000,374.45000000 742.20000000,375.00000000 743.43000000,375.55000000 744.66000000,376.10000000 745.89000000,376.65000000 747.12000000,377.20000000 748.35000000,377.75000000 749.58000000,378.30000000 750.81000000,378.85000000 752.04000000,379.40000000 753.27000000,379.95000000 754.50000000,380.50000000 755.73000000,381.05000000 756.96000000,381.60000000 758.19000000,382.15000000 759.42000000,382.70000000 760.65000000,383.25000000 761.88000000,383.80000000 763.11000000,384.35000000 764.34000000,384.90000000 765.57000000,385.45000000 766.80000000,386.00000000 768.03000000,386.55000000 769.26000000,387.10000000 770.49000000,387.65000000 771.72000000,388.20000000 772.95000000,388.75000000 774.18000000,389.30000000 775.41000000,389.85000000 776.64000000,390.40000000 777.87000000,390.95000000 779.10000000,391.50000000 780.33000000,392.05000000 781.56000000,392.60000000 782.79000000,393.15000000 784.02000000,393.70000000 785.25000000,394.25000000 786.48000000,394.80000000 787.71000000,395.35000000 788.94000000,395.90000000 790.17000000,396.45000000 791.40000000,397.00000000 792.63000000,397.55000000 793.86000000,398.10000000 795.09000000,398.65000000 796.32000000,399.20000000 797.55000000,399.75000000 798.78000000,400.30000000 800.01000000,400.85000000 801.24000000,401.40000000 802.47000000,401.95000000 803.70000000,402.50000000 804.93000000,403.05000000 806.16000000,403.60000000 807.39000000,404.15000000 808.62000000,404.70000000 809.85000000,405.25000000 811.08000000,405.80000000 812.31000000,406.35000000 813.54000000,406.90000000 814.77000000,407.45000000 816.00000000,408.00000000" fill="none" stroke="#247d70" stroke-width="3" clip-path="url(#p0)" stroke-dasharray="8 5"/>
<text x="321.5400" y="209.9000" font-family="Lato,DejaVu Sans,sans-serif" font-size="18" font-weight="700" text-anchor="start" fill="#247d70">MO</text>
<polyline data-panel="p0" data-curve="MK" points="78.00000000,298.00000000 79.23000000,298.00000000 80.46000000,298.00000000 81.69000000,298.00000000 82.92000000,298.00000000 84.15000000,298.00000000 85.38000000,298.00000000 86.61000000,298.00000000 87.84000000,298.00000000 89.07000000,298.00000000 90.30000000,298.00000000 91.53000000,298.00000000 92.76000000,298.00000000 93.99000000,298.00000000 95.22000000,298.00000000 96.45000000,298.00000000 97.68000000,298.00000000 98.91000000,298.00000000 100.14000000,298.00000000 101.37000000,298.00000000 102.60000000,298.00000000 103.83000000,298.00000000 105.06000000,298.00000000 106.29000000,298.00000000 107.52000000,298.00000000 108.75000000,298.00000000 109.98000000,298.00000000 111.21000000,298.00000000 112.44000000,298.00000000 113.67000000,298.00000000 114.90000000,298.00000000 116.13000000,298.00000000 117.36000000,298.00000000 118.59000000,298.00000000 119.82000000,298.00000000 121.05000000,298.00000000 122.28000000,298.00000000 123.51000000,298.00000000 124.74000000,298.00000000 125.97000000,298.00000000 127.20000000,298.00000000 128.43000000,298.00000000 129.66000000,298.00000000 130.89000000,298.00000000 132.12000000,298.00000000 133.35000000,298.00000000 134.58000000,298.00000000 135.81000000,298.00000000 137.04000000,298.00000000 138.27000000,298.00000000 139.50000000,298.00000000 140.73000000,298.00000000 141.96000000,298.00000000 143.19000000,298.00000000 144.42000000,298.00000000 145.65000000,298.00000000 146.88000000,298.00000000 148.11000000,298.00000000 149.34000000,298.00000000 150.57000000,298.00000000 151.80000000,298.00000000 153.03000000,298.00000000 154.26000000,298.00000000 155.49000000,298.00000000 156.72000000,298.00000000 157.95000000,298.00000000 159.18000000,298.00000000 160.41000000,298.00000000 161.64000000,298.00000000 162.87000000,298.00000000 164.10000000,298.00000000 165.33000000,298.00000000 166.56000000,298.00000000 167.79000000,298.00000000 169.02000000,298.00000000 170.25000000,298.00000000 171.48000000,298.00000000 172.71000000,298.00000000 173.94000000,298.00000000 175.17000000,298.00000000 176.40000000,298.00000000 177.63000000,298.00000000 178.86000000,298.00000000 180.09000000,298.00000000 181.32000000,298.00000000 182.55000000,298.00000000 183.78000000,298.00000000 185.01000000,298.00000000 186.24000000,298.00000000 187.47000000,298.00000000 188.70000000,298.00000000 189.93000000,298.00000000 191.16000000,298.00000000 192.39000000,298.00000000 193.62000000,298.00000000 194.85000000,298.00000000 196.08000000,298.00000000 197.31000000,298.00000000 198.54000000,298.00000000 199.77000000,298.00000000 201.00000000,298.00000000 202.23000000,298.00000000 203.46000000,298.00000000 204.69000000,298.00000000 205.92000000,298.00000000 207.15000000,298.00000000 208.38000000,298.00000000 209.61000000,298.00000000 210.84000000,298.00000000 212.07000000,298.00000000 213.30000000,298.00000000 214.53000000,298.00000000 215.76000000,298.00000000 216.99000000,298.00000000 218.22000000,298.00000000 219.45000000,298.00000000 220.68000000,298.00000000 221.91000000,298.00000000 223.14000000,298.00000000 224.37000000,298.00000000 225.60000000,298.00000000 226.83000000,298.00000000 228.06000000,298.00000000 229.29000000,298.00000000 230.52000000,298.00000000 231.75000000,298.00000000 232.98000000,298.00000000 234.21000000,298.00000000 235.44000000,298.00000000 236.67000000,298.00000000 237.90000000,298.00000000 239.13000000,298.00000000 240.36000000,298.00000000 241.59000000,298.00000000 242.82000000,298.00000000 244.05000000,298.00000000 245.28000000,298.00000000 246.51000000,298.00000000 247.74000000,298.00000000 248.97000000,298.00000000 250.20000000,298.00000000 251.43000000,298.00000000 252.66000000,298.00000000 253.89000000,298.00000000 255.12000000,298.00000000 256.35000000,298.00000000 257.58000000,298.00000000 258.81000000,298.00000000 260.04000000,298.00000000 261.27000000,298.00000000 262.50000000,298.00000000 263.73000000,298.00000000 264.96000000,298.00000000 266.19000000,298.00000000 267.42000000,298.00000000 268.65000000,298.00000000 269.88000000,298.00000000 271.11000000,298.00000000 272.34000000,298.00000000 273.57000000,298.00000000 274.80000000,298.00000000 276.03000000,298.00000000 277.26000000,298.00000000 278.49000000,298.00000000 279.72000000,298.00000000 280.95000000,298.00000000 282.18000000,298.00000000 283.41000000,298.00000000 284.64000000,298.00000000 285.87000000,298.00000000 287.10000000,298.00000000 288.33000000,298.00000000 289.56000000,298.00000000 290.79000000,298.00000000 292.02000000,298.00000000 293.25000000,298.00000000 294.48000000,298.00000000 295.71000000,298.00000000 296.94000000,298.00000000 298.17000000,298.00000000 299.40000000,298.00000000 300.63000000,298.00000000 301.86000000,298.00000000 303.09000000,298.00000000 304.32000000,298.00000000 305.55000000,298.00000000 306.78000000,298.00000000 308.01000000,298.00000000 309.24000000,298.00000000 310.47000000,298.00000000 311.70000000,298.00000000 312.93000000,298.00000000 314.16000000,298.00000000 315.39000000,298.00000000 316.62000000,298.00000000 317.85000000,298.00000000 319.08000000,298.00000000 320.31000000,298.00000000 321.54000000,298.00000000 322.77000000,298.00000000 324.00000000,298.00000000 325.23000000,298.00000000 326.46000000,298.00000000 327.69000000,298.00000000 328.92000000,298.00000000 330.15000000,298.00000000 331.38000000,298.00000000 332.61000000,298.00000000 333.84000000,298.00000000 335.07000000,298.00000000 336.30000000,298.00000000 337.53000000,298.00000000 338.76000000,298.00000000 339.99000000,298.00000000 341.22000000,298.00000000 342.45000000,298.00000000 343.68000000,298.00000000 344.91000000,298.00000000 346.14000000,298.00000000 347.37000000,298.00000000 348.60000000,298.00000000 349.83000000,298.00000000 351.06000000,298.00000000 352.29000000,298.00000000 353.52000000,298.00000000 354.75000000,298.00000000 355.98000000,298.00000000 357.21000000,298.00000000 358.44000000,298.00000000 359.67000000,298.00000000 360.90000000,298.00000000 362.13000000,298.00000000 363.36000000,298.00000000 364.59000000,298.00000000 365.82000000,298.00000000 367.05000000,298.00000000 368.28000000,298.00000000 369.51000000,298.00000000 370.74000000,298.00000000 371.97000000,298.00000000 373.20000000,298.00000000 374.43000000,298.00000000 375.66000000,298.00000000 376.89000000,298.00000000 378.12000000,298.00000000 379.35000000,298.00000000 380.58000000,298.00000000 381.81000000,298.00000000 383.04000000,298.00000000 384.27000000,298.00000000 385.50000000,298.00000000 386.73000000,298.00000000 387.96000000,298.00000000 389.19000000,298.00000000 390.42000000,298.00000000 391.65000000,298.00000000 392.88000000,298.00000000 394.11000000,298.00000000 395.34000000,298.00000000 396.57000000,298.00000000 397.80000000,298.00000000 399.03000000,298.00000000 400.26000000,298.00000000 401.49000000,298.00000000 402.72000000,298.00000000 403.95000000,298.00000000 405.18000000,298.00000000 406.41000000,298.00000000 407.64000000,298.00000000 408.87000000,298.00000000 410.10000000,298.00000000 411.33000000,298.00000000 412.56000000,298.00000000 413.79000000,298.00000000 415.02000000,298.00000000 416.25000000,298.00000000 417.48000000,298.00000000 418.71000000,298.00000000 419.94000000,298.00000000 421.17000000,298.00000000 422.40000000,298.00000000 423.63000000,298.00000000 424.86000000,298.00000000 426.09000000,298.00000000 427.32000000,298.00000000 428.55000000,298.00000000 429.78000000,298.00000000 431.01000000,298.00000000 432.24000000,298.00000000 433.47000000,298.00000000 434.70000000,298.00000000 435.93000000,298.00000000 437.16000000,298.00000000 438.39000000,298.00000000 439.62000000,298.00000000 440.85000000,298.00000000 442.08000000,298.00000000 443.31000000,298.00000000 444.54000000,298.00000000 445.77000000,298.00000000 447.00000000,298.00000000 448.23000000,298.00000000 449.46000000,298.00000000 450.69000000,298.00000000 451.92000000,298.00000000 453.15000000,298.00000000 454.38000000,298.00000000 455.61000000,298.00000000 456.84000000,298.00000000 458.07000000,298.00000000 459.30000000,298.00000000 460.53000000,298.00000000 461.76000000,298.00000000 462.99000000,298.00000000 464.22000000,298.00000000 465.45000000,298.00000000 466.68000000,298.00000000 467.91000000,298.00000000 469.14000000,298.00000000 470.37000000,298.00000000 471.60000000,298.00000000 472.83000000,298.00000000 474.06000000,298.00000000 475.29000000,298.00000000 476.52000000,298.00000000 477.75000000,298.00000000 478.98000000,298.00000000 480.21000000,298.00000000 481.44000000,298.00000000 482.67000000,298.00000000 483.90000000,298.00000000 485.13000000,298.00000000 486.36000000,298.00000000 487.59000000,298.00000000 488.82000000,298.00000000 490.05000000,298.00000000 491.28000000,298.00000000 492.51000000,298.00000000 493.74000000,298.00000000 494.97000000,298.00000000 496.20000000,298.00000000 497.43000000,298.00000000 498.66000000,298.00000000 499.89000000,298.00000000 501.12000000,298.00000000 502.35000000,298.00000000 503.58000000,298.00000000 504.81000000,298.00000000 506.04000000,298.00000000 507.27000000,298.00000000 508.50000000,298.00000000 509.73000000,298.00000000 510.96000000,298.00000000 512.19000000,298.00000000 513.42000000,298.00000000 514.65000000,298.00000000 515.88000000,298.00000000 517.11000000,298.00000000 518.34000000,298.00000000 519.57000000,298.00000000 520.80000000,298.00000000 522.03000000,298.00000000 523.26000000,298.00000000 524.49000000,298.00000000 525.72000000,298.00000000 526.95000000,298.00000000 528.18000000,298.00000000 529.41000000,298.00000000 530.64000000,298.00000000 531.87000000,298.00000000 533.10000000,298.00000000 534.33000000,298.00000000 535.56000000,298.00000000 536.79000000,298.00000000 538.02000000,298.00000000 539.25000000,298.00000000 540.48000000,298.00000000 541.71000000,298.00000000 542.94000000,298.00000000 544.17000000,298.00000000 545.40000000,298.00000000 546.63000000,298.00000000 547.86000000,298.00000000 549.09000000,298.00000000 550.32000000,298.00000000 551.55000000,298.00000000 552.78000000,298.00000000 554.01000000,298.00000000 555.24000000,298.00000000 556.47000000,298.00000000 557.70000000,298.00000000 558.93000000,298.00000000 560.16000000,298.00000000 561.39000000,298.00000000 562.62000000,298.00000000 563.85000000,298.00000000 565.08000000,298.00000000 566.31000000,298.00000000 567.54000000,298.00000000 568.77000000,298.00000000 570.00000000,298.00000000 571.23000000,298.00000000 572.46000000,298.00000000 573.69000000,298.00000000 574.92000000,298.00000000 576.15000000,298.00000000 577.38000000,298.00000000 578.61000000,298.00000000 579.84000000,298.00000000 581.07000000,298.00000000 582.30000000,298.00000000 583.53000000,298.00000000 584.76000000,298.00000000 585.99000000,298.00000000 587.22000000,298.00000000 588.45000000,298.00000000 589.68000000,298.00000000 590.91000000,298.00000000 592.14000000,298.00000000 593.37000000,298.00000000 594.60000000,298.00000000 595.83000000,298.00000000 597.06000000,298.00000000 598.29000000,298.00000000 599.52000000,298.00000000 600.75000000,298.00000000 601.98000000,298.00000000 603.21000000,298.00000000 604.44000000,298.00000000 605.67000000,298.00000000 606.90000000,298.00000000 608.13000000,298.00000000 609.36000000,298.00000000 610.59000000,298.00000000 611.82000000,298.00000000 613.05000000,298.00000000 614.28000000,298.00000000 615.51000000,298.00000000 616.74000000,298.00000000 617.97000000,298.00000000 619.20000000,298.00000000 620.43000000,298.00000000 621.66000000,298.00000000 622.89000000,298.00000000 624.12000000,298.00000000 625.35000000,298.00000000 626.58000000,298.00000000 627.81000000,298.00000000 629.04000000,298.00000000 630.27000000,298.00000000 631.50000000,298.00000000 632.73000000,298.00000000 633.96000000,298.00000000 635.19000000,298.00000000 636.42000000,298.00000000 637.65000000,298.00000000 638.88000000,298.00000000 640.11000000,298.00000000 641.34000000,298.00000000 642.57000000,298.00000000 643.80000000,298.00000000 645.03000000,298.00000000 646.26000000,298.00000000 647.49000000,298.00000000 648.72000000,298.00000000 649.95000000,298.00000000 651.18000000,298.00000000 652.41000000,298.00000000 653.64000000,298.00000000 654.87000000,298.00000000 656.10000000,298.00000000 657.33000000,298.00000000 658.56000000,298.00000000 659.79000000,298.00000000 661.02000000,298.00000000 662.25000000,298.00000000 663.48000000,298.00000000 664.71000000,298.00000000 665.94000000,298.00000000 667.17000000,298.00000000 668.40000000,298.00000000 669.63000000,298.00000000 670.86000000,298.00000000 672.09000000,298.00000000 673.32000000,298.00000000 674.55000000,298.00000000 675.78000000,298.00000000 677.01000000,298.00000000 678.24000000,298.00000000 679.47000000,298.00000000 680.70000000,298.00000000 681.93000000,298.00000000 683.16000000,298.00000000 684.39000000,298.00000000 685.62000000,298.00000000 686.85000000,298.00000000 688.08000000,298.00000000 689.31000000,298.00000000 690.54000000,298.00000000 691.77000000,298.00000000 693.00000000,298.00000000 694.23000000,298.00000000 695.46000000,298.00000000 696.69000000,298.00000000 697.92000000,298.00000000 699.15000000,298.00000000 700.38000000,298.00000000 701.61000000,298.00000000 702.84000000,298.00000000 704.07000000,298.00000000 705.30000000,298.00000000 706.53000000,298.00000000 707.76000000,298.00000000 708.99000000,298.00000000 710.22000000,298.00000000 711.45000000,298.00000000 712.68000000,298.00000000 713.91000000,298.00000000 715.14000000,298.00000000 716.37000000,298.00000000 717.60000000,298.00000000 718.83000000,298.00000000 720.06000000,298.00000000 721.29000000,298.00000000 722.52000000,298.00000000 723.75000000,298.00000000 724.98000000,298.00000000 726.21000000,298.00000000 727.44000000,298.00000000 728.67000000,298.00000000 729.90000000,298.00000000 731.13000000,298.00000000 732.36000000,298.00000000 733.59000000,298.00000000 734.82000000,298.00000000 736.05000000,298.00000000 737.28000000,298.00000000 738.51000000,298.00000000 739.74000000,298.00000000 740.97000000,298.00000000 742.20000000,298.00000000 743.43000000,298.00000000 744.66000000,298.00000000 745.89000000,298.00000000 747.12000000,298.00000000 748.35000000,298.00000000 749.58000000,298.00000000 750.81000000,298.00000000 752.04000000,298.00000000 753.27000000,298.00000000 754.50000000,298.00000000 755.73000000,298.00000000 756.96000000,298.00000000 758.19000000,298.00000000 759.42000000,298.00000000 760.65000000,298.00000000 761.88000000,298.00000000 763.11000000,298.00000000 764.34000000,298.00000000 765.57000000,298.00000000 766.80000000,298.00000000 768.03000000,298.00000000 769.26000000,298.00000000 770.49000000,298.00000000 771.72000000,298.00000000 772.95000000,298.00000000 774.18000000,298.00000000 775.41000000,298.00000000 776.64000000,298.00000000 777.87000000,298.00000000 779.10000000,298.00000000 780.33000000,298.00000000 781.56000000,298.00000000 782.79000000,298.00000000 784.02000000,298.00000000 785.25000000,298.00000000 786.48000000,298.00000000 787.71000000,298.00000000 788.94000000,298.00000000 790.17000000,298.00000000 791.40000000,298.00000000 792.63000000,298.00000000 793.86000000,298.00000000 795.09000000,298.00000000 796.32000000,298.00000000 797.55000000,298.00000000 798.78000000,298.00000000 800.01000000,298.00000000 801.24000000,298.00000000 802.47000000,298.00000000 803.70000000,298.00000000 804.93000000,298.00000000 806.16000000,298.00000000 807.39000000,298.00000000 808.62000000,298.00000000 809.85000000,298.00000000 811.08000000,298.00000000 812.31000000,298.00000000 813.54000000,298.00000000 814.77000000,298.00000000 816.00000000,298.00000000" fill="none" stroke="#aa4e42" stroke-width="3" clip-path="url(#p0)"/>
<text x="653.6400" y="322.0000" font-family="Lato,DejaVu Sans,sans-serif" font-size="18" font-weight="700" text-anchor="start" fill="#aa4e42">MK</text>
<line x1="78.0000" y1="298.0000" x2="570.0000" y2="298.0000" stroke="#657986" stroke-width="1.1" stroke-dasharray="5 4"/>
<line x1="570.0000" y1="353.0000" x2="570.0000" y2="298.0000" stroke="#657986" stroke-width="1.1" stroke-dasharray="5 4"/>
<circle data-point="1" data-panel="p0" cx="570.0000" cy="298.0000" r="4.2" fill="#183247"/>
<text x="550.0000" y="320.0000" font-family="Lato,DejaVu Sans,sans-serif" font-size="18" font-weight="700" text-anchor="start" fill="#183247">1</text>
<line x1="78.0000" y1="188.0000" x2="570.0000" y2="188.0000" stroke="#657986" stroke-width="1.1" stroke-dasharray="5 4"/>
<line x1="570.0000" y1="353.0000" x2="570.0000" y2="188.0000" stroke="#657986" stroke-width="1.1" stroke-dasharray="5 4"/>
<circle data-point="2" data-panel="p0" cx="570.0000" cy="188.0000" r="4.2" fill="#183247"/>
<text x="578.0000" y="176.0000" font-family="Lato,DejaVu Sans,sans-serif" font-size="18" font-weight="700" text-anchor="start" fill="#183247">2</text>
<text x="450.0000" y="426.0000" font-family="Lato,DejaVu Sans,sans-serif" font-size="17" font-weight="400" text-anchor="middle" fill="#183247">Punt 1 bepaalt q = 80. Punt 2 geeft P = € 12.</text>
</svg>